<?xml version="1.0" standalone="no"?><!DOCTYPE svg PUBLIC "-//W3C//DTD SVG 1.1//EN" "http://www.w3.org/Graphics/SVG/1.1/DTD/svg11.dtd"><svg t="1651806962669" class="icon" viewBox="0 0 1024 1024" version="1.1" xmlns="http://www.w3.org/2000/svg"  width="512" height="512" xmlns:xlink="http://www.w3.org/1999/xlink"><defs><style type="text/css">@font-face { font-family: feedback-iconfont; src: url("//at.alicdn.com/t/font_1031158_u69w8yhxdu.woff2?t=1630033759944") format("woff2"), url("//at.alicdn.com/t/font_1031158_u69w8yhxdu.woff?t=1630033759944") format("woff"), url("//at.alicdn.com/t/font_1031158_u69w8yhxdu.ttf?t=1630033759944") format("truetype"); }
</style></defs><path d="M590.769231 571.076923h324.923077c15.753846 0 29.538462-13.784615 29.538461-29.538461v-59.076924c0-15.753846-13.784615-29.538462-29.538461-29.538461H590.769231c-11.815385 0-19.692308-7.876923-19.692308-19.692308V108.307692c0-15.753846-13.784615-29.538462-29.538461-29.538461h-59.076924c-15.753846 0-29.538462 13.784615-29.538461 29.538461V433.230769c0 11.815385-7.876923 19.692308-19.692308 19.692308H108.307692c-15.753846 0-29.538462 13.784615-29.538461 29.538461v59.076924c0 15.753846 13.784615 29.538462 29.538461 29.538461H433.230769c11.815385 0 19.692308 7.876923 19.692308 19.692308v324.923077c0 15.753846 13.784615 29.538462 29.538461 29.538461h59.076924c15.753846 0 29.538462-13.784615 29.538461-29.538461V590.769231c0-11.815385 7.876923-19.692308 19.692308-19.692308z"  ></path></svg>
