<?xml version="1.0" standalone="no"?><!DOCTYPE svg PUBLIC "-//W3C//DTD SVG 1.1//EN" "http://www.w3.org/Graphics/SVG/1.1/DTD/svg11.dtd"><svg t="1704358202903" class="icon" viewBox="0 0 1144 1024" version="1.1" xmlns="http://www.w3.org/2000/svg" p-id="24851" xmlns:xlink="http://www.w3.org/1999/xlink" width="1144" height="1024"><path d="M1080.018824 582.354824c-23.009882 129.505882-139.023059 227.930353-278.648471 227.930352H329.968941c-140.167529 0-256.602353-99.267765-278.889412-229.616941A47.164235 47.164235 0 0 1 0 533.684706l-0.060235-181.067294c0-26.021647 21.082353-47.164235 47.164235-47.164236C47.164235 153.419294 173.778824 30.117647 329.968941 30.117647h471.401412C957.620706 30.117647 1084.235294 153.419294 1084.235294 305.453176v6.625883a47.164235 47.164235 0 0 1 60.235294 45.296941v181.067294a47.164235 47.164235 0 0 1-64.451764 43.91153zM330.029176 144.865882c-91.136 0-164.984471 71.920941-164.98447 160.587294v229.496471c0 88.726588 73.848471 160.647529 165.044706 160.647529h471.341176c91.136 0 165.044706-71.920941 165.044706-160.647529v-229.496471c0-88.666353-73.908706-160.587294-165.044706-160.587294H329.968941zM400.685176 259.614118c39.092706 0 70.716235 31.623529 70.716236 70.656v122.819764a70.716235 70.716235 0 0 1-141.432471 0V330.270118c0-39.032471 31.683765-70.656 70.716235-70.656z m329.968942 0c39.092706 0 70.716235 31.623529 70.716235 70.656v122.819764a70.716235 70.716235 0 1 1-141.372235 0V330.270118c0-39.032471 31.623529-70.656 70.656-70.656zM420.502588 993.882353a137.697882 137.697882 0 0 1-137.637647-137.697882h565.669647a137.697882 137.697882 0 0 1-137.697882 137.697882h-290.334118z" fill="#aa88ee" p-id="24852"></path></svg>