<?xml version="1.0" standalone="no"?><!DOCTYPE svg PUBLIC "-//W3C//DTD SVG 1.1//EN" "http://www.w3.org/Graphics/SVG/1.1/DTD/svg11.dtd"><svg t="1710769074425" class="icon" viewBox="0 0 1024 1024" version="1.1" xmlns="http://www.w3.org/2000/svg"  xmlns:xlink="http://www.w3.org/1999/xlink" width="512" height="512"><path d="M149.76 512a26.24 26.24 0 0 1-10.24 0 31.36 31.36 0 0 1-20.48-40.32l128-384A32.64 32.64 0 0 1 275.84 64a32.64 32.64 0 0 1 30.72 21.76l128 384A31.36 31.36 0 0 1 416 512a32 32 0 0 1-40.96-19.84L276.48 197.12 179.84 490.24a31.36 31.36 0 0 1-30.08 21.76z"  ></path><path d="M341.76 384h-128a32 32 0 0 1 0-64h128a32 32 0 0 1 0 64zM405.76 960h-256a32 32 0 0 1-21.76-51.84L339.2 640h-192a32 32 0 0 1 0-64h256a32 32 0 0 1 24.96 51.84L216.32 896h192a32 32 0 0 1 0 64zM725.76 896a32 32 0 0 1-32-32v-768a32 32 0 0 1 32-32 32 32 0 0 1 32 32v768a32 32 0 0 1-32 32z"  ></path><path d="M725.76 949.12a32.64 32.64 0 0 1-23.04-9.6l-181.12-181.12a32 32 0 0 1 0-44.8 32 32 0 0 1 45.44 0l158.72 158.08 158.08-158.08a32 32 0 0 1 45.44 0 32 32 0 0 1 0 44.8l-181.12 181.12a32 32 0 0 1-22.4 9.6z"  ></path></svg>
