<svg class="icon" viewBox="0 0 1024 1024" version="1.1" xmlns="http://www.w3.org/2000/svg"
     width="1024" height="1024" xmlns:xlink="http://www.w3.org/1999/xlink">
    <path d="M816.464 479.694h-543.708l162.373-174.49c12.098-12.999 11.391-33.351-1.639-45.463-13.014-12.114-33.366-11.376-45.481 1.639l-212.089 227.918c-11.454 12.324-11.471 31.387-0.065 43.775l212.089 229.253c12.066 13.050 32.433 13.835 45.481 1.769 6.853-6.355 10.327-14.978 10.327-23.634 0-7.821-2.832-15.654-8.558-21.847l-161.491-174.555h542.759c17.763 0 32.174-14.415 32.174-32.174s-14.415-32.191-32.174-32.191z"></path>
</svg>
