<?xml version="1.0" standalone="no"?><!DOCTYPE svg PUBLIC "-//W3C//DTD SVG 1.1//EN" "http://www.w3.org/Graphics/SVG/1.1/DTD/svg11.dtd"><svg t="1689047954278" class="icon" viewBox="0 0 1024 1024" version="1.1" xmlns="http://www.w3.org/2000/svg"  width="1024" height="1024" xmlns:xlink="http://www.w3.org/1999/xlink"><path d="M831.999003 1024H192.000997c-77.699758-0.1-140.699562-63.099803-140.799562-140.799561V140.802751C51.301435 63.102993 114.301239 0.10319 192.000997 0.00319h516.298391c23.599926-0.199999 46.399855 8.999972 63.199804 25.59992l189.699409 189.699409c7.499977 7.299977 11.699964 17.399946 11.499964 27.899913v639.998007c0 77.699758-62.999804 140.699562-140.699562 140.799561zM192.000997 76.802951c-35.29989 0-63.999801 28.699911-63.999801 63.9998v742.397688c0 35.29989 28.699911 63.999801 63.999801 63.9998h639.998006c35.29989 0 63.999801-28.699911 63.999801-63.9998V259.102383L716.799362 79.902941c-2.399993-1.999994-5.399983-3.09999-8.399974-3.09999H192.000997z"  ></path><path d="M198.400977 399.101947h69.899782c46.299856 0 79.899751 14.799954 79.899751 55.599826 0.599998 21.399933-12.299962 40.999872-32.299899 48.899848v1.499995c26.699917 3.399989 46.099856 26.899916 44.499861 53.799833 0 44.79986-36.599886 66.299793-86.49973 66.299793h-76.799761l1.299996-226.099295z m65.999794 94.199706c34.299893 0 48.899848-12.79996 48.899848-33.999894s-15.89995-32.499899-47.899851-32.499899h-31.199903v66.599793l30.199906-0.1z m5.699983 103.699677c35.29989 0 55.599827-12.499961 55.599826-40.199875 0-27.599914-19.699939-36.599886-55.599826-36.599886h-35.799889V597.00133h35.799889z m121.099622-84.999735c0-72.699774 40.199875-116.499637 98.299694-116.499637s99.299691 42.999866 99.299691 116.499637-40.399874 117.999632-98.599693 117.999632-98.999692-46.099856-98.999692-117.999632z m160.199501 0c0-53.199834-25.59992-85.199735-61.999807-85.199735s-61.699808 31.499902-61.699807 85.199735c0 53.799832 24.299924 86.79973 61.699807 86.79973s61.999807-35.599889 61.999807-86.79973z m83.69974-112.899648h40.999872l40.699873 114.199644c5.099984 15.099953 9.69997 30.499905 15.099953 45.799857h1.499995c5.099984-15.399952 9.49997-30.699904 14.799954-45.799857l40.999872-114.199644h41.199872v225.999296h-32.999897V513.301591c0-20.199937 2.799991-49.399846 4.599986-70.099782l-18.199944 51.199841-41.49987 109.09966h-21.999932l-39.699876-107.799664-17.899944-51.199841c1.499995 20.499936 4.399986 49.699845 4.399986 70.099782v111.899651h-31.9999V399.101947z"  ></path></svg>
