<?xml version="1.0" standalone="no"?><!DOCTYPE svg PUBLIC "-//W3C//DTD SVG 1.1//EN" "http://www.w3.org/Graphics/SVG/1.1/DTD/svg11.dtd"><svg t="1710129185517" class="icon" viewBox="0 0 1024 1024" version="1.1" xmlns="http://www.w3.org/2000/svg" p-id="4422" width="512" height="512" xmlns:xlink="http://www.w3.org/1999/xlink"><path d="M473.344 20.053333c-35.925333 0-72.362667 3.925333-108.885333 12.288a485.12 485.12 0 0 0-207.786667 103.381334 453.632 453.632 0 0 0-100.693333 120.576A432.298667 432.298667 0 0 0 13.013333 366.165333c-16.981333 69.12-17.066667 142.336-1.834666 215.381334 3.626667 17.28 7.808 34.517333 13.226666 51.712a505.6 505.6 0 0 0 70.912 159.104 139.648 139.648 0 0 0-3.669333 18.218666 141.781333 141.781333 0 0 0 121.514667 158.293334 139.904 139.904 0 0 0 83.072-14.762667c44.586667 21.76 92.586667 36.864 142.464 44.373333a497.493333 497.493333 0 0 0 182.826666-6.613333 493.482667 493.482667 0 0 0 210.602667-106.026667 454.101333 454.101333 0 0 0 100.352-123.477333 476.330667 476.330667 0 0 0 57.856-188.757333 478.464 478.464 0 0 0-21.248-184.96c7.466667-3.285333 14.421333-7.466667 20.736-12.501334a18.944 18.944 0 0 0 0.042667 0c17.152-13.738667 29.568-33.877333 33.152-57.258666a91.562667 91.562667 0 0 0-76.373334-103.850667 90.24 90.24 0 0 0-51.413333 7.296c-1.621333-1.834667-3.328-3.669333-4.821333-5.546667a498.901333 498.901333 0 0 0-148.309334-125.013333 569.514667 569.514667 0 0 0-75.093333-34.56 578.133333 578.133333 0 0 0-87.893333-26.154667 517.162667 517.162667 0 0 0-105.813334-11.008z m30.464 13.994667a416.426667 416.426667 0 0 1 43.861333 1.792 422.058667 422.058667 0 0 1 117.034667 27.264c41.984 16.64 80.64 40.874667 115.498667 69.632a461.226667 461.226667 0 0 1 89.216 99.328c1.109333 1.664 2.048 3.413333 2.986666 5.12a90.453333 90.453333 0 0 0-18.56 112.896c-6.741333 4.864-41.386667 29.525333-69.717333 50.474667-17.664 13.141333-31.274667 23.765333-31.274667 23.765333l24.789334 29.013333s12.629333-11.776 28.373333-27.221333c24.405333-23.978667 52.437333-52.608 59.52-59.861333a90.538667 90.538667 0 0 0 81.365333 28.885333 479.104 479.104 0 0 1-0.554666 172.629333 486.826667 486.826667 0 0 1-62.933334 166.272 526.634667 526.634667 0 0 1-88.704 110.378667c-50.773333 48-112.341333 86.272-183.722666 107.989333a461.909333 461.909333 0 0 1-169.514667 20.650667 471.04 471.04 0 0 1-130.432-27.818667 140.970667 140.970667 0 0 0 60.458667-97.877333 139.733333 139.733333 0 0 0-12.544-78.592c7.68-6.912 17.194667-15.488 27.989333-25.6 43.306667-40.746667 100.394667-98.261333 100.394667-98.261333l-20.053334-25.557334s-69.546667 41.472-119.509333 73.728c-13.098667 8.448-24.448 16.128-33.152 22.058667a139.648 139.648 0 0 0-64.682667-26.069333 141.994667 141.994667 0 0 0-148.778666 86.058666 440.448 440.448 0 0 1-29.653334-45.994666A465.92 465.92 0 0 1 31.061333 631.466667a441.6 441.6 0 0 1-8.533333-51.712c-6.997333-70.528 4.394667-139.008 26.837333-202.837334a552.533333 552.533333 0 0 1 46.378667-97.621333c24.32-41.301333 53.248-79.872 88.277333-113.322667A469.888 469.888 0 0 1 503.808 34.005333z m-6.272 138.965333a163.754667 163.754667 0 0 0-162.986667 162.986667v100.693333h-40.106666c-32.042667 0-58.752 26.666667-58.752 58.752v162.133334h62.293333v-158.634667h399.104v267.264H427.52v62.293333h273.066667c32.042667 0 58.752-26.666667 58.752-58.752v-274.346666a59.306667 59.306667 0 0 0-58.752-58.752h-40.106667v-100.693334a163.754667 163.754667 0 0 0-162.986667-162.944z m0 62.293334a101.162667 101.162667 0 0 1 100.693333 100.693333v100.693333H396.8v-100.693333a101.205333 101.205333 0 0 1 100.693333-100.693333z m432.682667 16.725333a53.461333 53.461333 0 0 1 55.296 61.184 52.906667 52.906667 0 0 1-19.328 33.28c-11.349333 9.088-26.026667 13.568-41.301334 11.264a53.461333 53.461333 0 0 1-44.586666-60.586667 53.546667 53.546667 0 0 1 49.92-45.141333zM229.717333 743.466667a86.186667 86.186667 0 0 1 81.792 55.381333c4.949333 12.8 6.784 26.794667 4.864 41.258667a85.973333 85.973333 0 0 1-95.957333 73.728 86.016 86.016 0 0 1-73.685333-96 86.058667 86.058667 0 0 1 82.986666-74.368z" fill="#333333" p-id="4423"></path></svg>