<?xml version="1.0" standalone="no"?><!DOCTYPE svg PUBLIC "-//W3C//DTD SVG 1.1//EN" "http://www.w3.org/Graphics/SVG/1.1/DTD/svg11.dtd"><svg t="1727600090326" class="icon" viewBox="0 0 1024 1024" version="1.1" xmlns="http://www.w3.org/2000/svg"  xmlns:xlink="http://www.w3.org/1999/xlink" width="256" height="256"><path d="M0.000341 290.850133v657.783467c0 20.002133 7.645867 39.185067 21.2992 53.3504 13.6192 14.097067 32.085333 22.016 51.336534 22.016h878.762666C991.505408 1024 1024.000341 990.242133 1024.000341 948.599467V290.850133H0.000341z m349.9008 503.125334c9.762133 9.8304 13.687467 24.337067 10.24 37.956266a38.365867 38.365867 0 0 1-26.8288 27.8528 36.7616 36.7616 0 0 1-36.5568-10.683733L144.725675 691.131733a42.871467 42.871467 0 0 1 0-57.1392l152.1664-157.934933a36.590933 36.590933 0 0 1 36.9664-11.5712c13.448533 3.515733 23.927467 14.370133 27.272533 28.3648 3.3792 13.9264-0.955733 28.740267-11.264 38.331733L223.334741 662.528l126.5664 131.447467z m263.509334-308.599467L514.389675 860.5696c-5.597867 20.650667-26.180267 32.733867-46.08 27.101867-19.933867-5.700267-31.744-26.965333-26.385067-47.684267l99.0208-375.296c2.628267-10.0352 9.0112-18.466133 17.681067-23.586133a36.522667 36.522667 0 0 1 28.535466-3.720534c9.591467 2.7648 17.783467 9.3184 22.7328 18.3296 4.9152 9.0112 6.178133 19.626667 3.549867 29.5936v0.068267z m266.274133 205.892267l-152.098133 157.866666c-14.7456 14.779733-38.1952 14.5408-52.667734-0.546133s-14.677333-39.389867-0.4096-54.715733l126.532267-131.345067-126.532267-131.345067c-14.677333-15.223467-14.677333-39.901867 0.034134-55.125333s38.468267-15.223467 53.179733 0l152.098133 157.934933a42.666667 42.666667 0 0 1 0 57.1392l-0.136533 0.136534z m0 0M1024.000341 190.3616V75.400533c0-20.002133-7.645867-39.150933-21.265066-53.3504A71.2704 71.2704 0 0 0 951.432875 0H72.636075C53.350741 0 34.884608 7.8848 21.265408 22.050133A77.0048 77.0048 0 0 0 0.000341 75.400533v114.961067h1024z" ></path></svg>
