<?xml version="1.0" standalone="no"?><!DOCTYPE svg PUBLIC "-//W3C//DTD SVG 1.1//EN" "http://www.w3.org/Graphics/SVG/1.1/DTD/svg11.dtd"><svg t="1656254829024" class="icon" viewBox="0 0 1024 1024" version="1.1" xmlns="http://www.w3.org/2000/svg"  width="512" height="512" xmlns:xlink="http://www.w3.org/1999/xlink"><defs><style type="text/css">@font-face { font-family: feedback-iconfont; src: url("//at.alicdn.com/t/font_1031158_u69w8yhxdu.woff2?t=1630033759944") format("woff2"), url("//at.alicdn.com/t/font_1031158_u69w8yhxdu.woff?t=1630033759944") format("woff"), url("//at.alicdn.com/t/font_1031158_u69w8yhxdu.ttf?t=1630033759944") format("truetype"); }
</style></defs><path d="M766.63808 803.90144a28.20096 28.20096 0 0 0-28.19584 28.19584 35.9168 35.9168 0 0 1-35.87584 35.87584H203.05408a35.9168 35.9168 0 0 1-35.87584-35.87584V199.53152a35.9168 35.9168 0 0 1 35.87584-35.87584h499.51232a35.9168 35.9168 0 0 1 35.87584 35.87584V336.0256a28.20096 28.20096 0 0 0 56.39168 0V199.53152c0-50.87744-41.3952-92.26752-92.26752-92.26752H203.05408c-50.87744 0-92.26752 41.39008-92.26752 92.26752v632.56064c0 50.87744 41.3952 92.26752 92.26752 92.26752h499.51232c50.87744 0 92.26752-41.39008 92.26752-92.26752a28.19072 28.19072 0 0 0-28.19584-28.19072z"  ></path><path d="M606.45376 336.0256a28.20096 28.20096 0 0 0-28.19584-28.19584H261.57056a28.20096 28.20096 0 0 0 0 56.39168h316.69248a28.19584 28.19584 0 0 0 28.19072-28.19584zM559.4624 467.26144a28.20096 28.20096 0 0 0-28.19584-28.19584H261.57056a28.20096 28.20096 0 0 0 0 56.39168h269.70112a28.19584 28.19584 0 0 0 28.19072-28.19584zM493.26592 598.5024a28.20096 28.20096 0 0 0-28.19584-28.19584H261.57056a28.20096 28.20096 0 0 0 0 56.39168h203.49952a28.20096 28.20096 0 0 0 28.19584-28.19584zM261.57056 701.5424a28.20096 28.20096 0 0 0 0 56.39168h109.5168a28.20096 28.20096 0 0 0 0-56.39168h-109.5168zM933.98016 565.92896h-38.79936a151.552 151.552 0 0 0-10.48064-39.1936l33.58208-19.38944a10.51648 10.51648 0 0 0 3.85024-14.37184l-9.14432-15.83616a10.51648 10.51648 0 0 0-14.37184-3.85024l-33.64864 19.42528a154.30144 154.30144 0 0 0-28.66688-28.66688l19.42528-33.64864a10.5216 10.5216 0 0 0-3.85024-14.37184l-15.83616-9.14432a10.51648 10.51648 0 0 0-14.37184 3.85024l-19.38944 33.58208a151.84384 151.84384 0 0 0-39.19872-10.48064v-38.79936c0-5.8112-4.7104-10.5216-10.5216-10.5216h-18.28352c-5.8112 0-10.5216 4.7104-10.5216 10.5216v38.79936a151.63904 151.63904 0 0 0-39.19872 10.48064l-19.38944-33.58208a10.51648 10.51648 0 0 0-14.37184-3.85024l-15.83616 9.14432a10.51648 10.51648 0 0 0-3.85024 14.37184l19.42528 33.64864a154.30144 154.30144 0 0 0-28.66688 28.66688l-33.64864-19.42528a10.51648 10.51648 0 0 0-14.37184 3.85024l-9.14432 15.83616a10.5216 10.5216 0 0 0 3.85024 14.37184l33.58208 19.38944a151.84384 151.84384 0 0 0-10.48064 39.19872h-38.79936c-5.8112 0-10.5216 4.7104-10.5216 10.5216v18.28352c0 5.8112 4.7104 10.5216 10.5216 10.5216h38.79936a151.84384 151.84384 0 0 0 10.48064 39.19872l-33.58208 19.38944a10.51648 10.51648 0 0 0-3.85024 14.37184l9.14432 15.83616a10.51648 10.51648 0 0 0 14.37184 3.85024l33.64864-19.42528a154.30144 154.30144 0 0 0 28.66688 28.66688l-19.42528 33.64864a10.5216 10.5216 0 0 0 3.85024 14.37184l15.83616 9.14432c5.03296 2.90816 11.4688 1.18272 14.37184-3.85024l19.38944-33.58208a151.84384 151.84384 0 0 0 39.19872 10.48064v38.79936c0 5.8112 4.7104 10.5216 10.5216 10.5216h18.28352c5.8112 0 10.5216-4.7104 10.5216-10.5216v-38.79936a151.84384 151.84384 0 0 0 39.19872-10.48064l19.38944 33.58208a10.51648 10.51648 0 0 0 14.37184 3.85024l15.83616-9.14432a10.51648 10.51648 0 0 0 3.85024-14.37184l-19.42528-33.64864a154.45504 154.45504 0 0 0 28.66688-28.66688l33.64864 19.42528c5.03296 2.90816 11.4688 1.18272 14.37184-3.85024l9.14432-15.83616a10.5216 10.5216 0 0 0-3.85024-14.37184l-33.58208-19.38944a151.8592 151.8592 0 0 0 10.48064-39.1936h38.79936c5.8112 0 10.5216-4.7104 10.5216-10.5216v-18.28352c0-5.82144-4.7104-10.53184-10.5216-10.53184zM743.424 702.1056c-64.24576 0-116.51584-52.27008-116.51584-116.51584 0-64.24576 52.27008-116.51584 116.51584-116.51584 64.24576 0 116.51072 52.27008 116.51072 116.51584 0.00512 64.25088-52.26496 116.51584-116.51072 116.51584z"  ></path><path d="M743.424 585.58976m-21.89312 0a21.89312 21.89312 0 1 0 43.78624 0 21.89312 21.89312 0 1 0-43.78624 0Z"  ></path></svg>
