<?xml version="1.0" standalone="no"?><!DOCTYPE svg PUBLIC "-//W3C//DTD SVG 1.1//EN" "http://www.w3.org/Graphics/SVG/1.1/DTD/svg11.dtd"><svg t="1728547945898" class="icon" viewBox="0 0 1024 1024" version="1.1" xmlns="http://www.w3.org/2000/svg"  width="256" height="256" xmlns:xlink="http://www.w3.org/1999/xlink"><path d="M933.339962 233.883974L541.924521 8.127591a60.21776 60.21776 0 0 0-60.21776 0L90.29132 233.883974a60.21776 60.21776 0 0 0-30.10888 52.208798v451.633201a60.21776 60.21776 0 0 0 30.10888 52.208798L481.706761 1015.691153a60.21776 60.21776 0 0 0 60.21776 0l391.415441-225.756382a60.21776 60.21776 0 0 0 30.10888-52.208798v-451.633201a60.21776 60.21776 0 0 0-30.10888-52.208798z m-421.524321-103.935854l270.19709 155.903781-270.437961 156.566176-272.003622-155.301603zM180.617961 392.256683L451.236575 546.835673v312.168869L180.617961 702.799672z m391.41544 466.687641V546.534584l270.618614-156.566176v312.831264z"  ></path></svg>
