<?xml version="1.0" standalone="no"?><!DOCTYPE svg PUBLIC "-//W3C//DTD SVG 1.1//EN"
  "http://www.w3.org/Graphics/SVG/1.1/DTD/svg11.dtd">
<svg class="icon" viewBox="0 0 1024 1024" version="1.1" xmlns="http://www.w3.org/2000/svg"
     xmlns:xlink="http://www.w3.org/1999/xlink" width="256" height="256">
  <path
    d="M350.4 809.6c-73.6 0-134.4-60.8-134.4-134.4V134.4c0-73.6 60.8-134.4 134.4-134.4h540.8c35.2 0 68.8 14.4 94.4 40S1024 99.2 1024 134.4v540.8c0 35.2-14.4 70.4-40 94.4-25.6 25.6-59.2 40-94.4 40H350.4z m-1.6-744c-38.4 0-68.8 30.4-68.8 68.8v540.8c0 38.4 30.4 68.8 68.8 68.8h540.8c38.4 0 68.8-30.4 68.8-68.8V134.4c0-38.4-30.4-68.8-68.8-68.8H348.8z"
    ></path>
  <path
    d="M459.2 929.6c0 16-12.8 30.4-30.4 30.4H94.4c-16 0-30.4-12.8-30.4-30.4V595.2c0-16 12.8-30.4 30.4-30.4h52.8v-64H94.4C41.6 500.8 0 544 0 595.2v334.4C0 980.8 43.2 1024 94.4 1024h334.4c52.8 0 94.4-43.2 94.4-94.4v-52.8h-64v52.8z m224-324.8c-12.8 0-24-6.4-28.8-17.6l-3.2-8c-4.8-8-14.4-14.4-24-14.4s-19.2 4.8-24 14.4l-3.2 8c-4.8 11.2-17.6 17.6-28.8 17.6h-8l-14.4-4.8c-4.8-1.6-9.6-3.2-12.8-6.4h-1.6c-11.2-8-16-22.4-12.8-36.8l3.2-8c1.6-9.6 0-19.2-8-27.2-4.8-4.8-12.8-8-19.2-8-1.6 0-4.8 0-6.4 1.6l-8 3.2c-3.2 1.6-6.4 1.6-9.6 1.6-11.2 0-20.8-4.8-27.2-14.4v-1.6c-1.6-4.8-4.8-9.6-6.4-12.8l-4.8-14.4v-3.2c-1.6-14.4 4.8-27.2 16-33.6l8-3.2c8-4.8 14.4-14.4 14.4-24s-4.8-19.2-14.4-24l-9.6-4.8c-12.8-6.4-19.2-20.8-16-33.6v-3.2l4.8-14.4c1.6-4.8 3.2-9.6 6.4-14.4v-1.6c6.4-8 16-14.4 27.2-14.4 3.2 0 6.4 0 9.6 1.6l8 3.2c1.6 0 4.8 1.6 6.4 1.6 8 0 14.4-3.2 19.2-8 6.4-6.4 9.6-17.6 8-27.2l-3.2-8c-4.8-12.8 1.6-28.8 12.8-36.8h1.6c4.8-1.6 9.6-4.8 12.8-6.4l14.4-4.8h8c12.8 0 24 6.4 28.8 17.6l3.2 8c4.8 8 14.4 14.4 24 14.4s19.2-4.8 24-14.4l3.2-8c4.8-11.2 17.6-17.6 28.8-17.6h8l14.4 4.8c4.8 1.6 9.6 3.2 12.8 6.4h1.6c11.2 8 16 22.4 12.8 36.8l-3.2 8c-1.6 9.6 0 19.2 8 27.2 4.8 4.8 12.8 8 19.2 8 1.6 0 4.8 0 6.4-1.6l8-3.2c3.2-1.6 6.4-1.6 9.6-1.6 11.2 0 20.8 4.8 27.2 14.4v1.6c1.6 4.8 4.8 9.6 6.4 12.8l4.8 14.4v3.2c1.6 14.4-4.8 27.2-16 33.6l-8 3.2c-8 4.8-14.4 14.4-14.4 24s4.8 19.2 14.4 24l8 3.2c12.8 6.4 19.2 20.8 16 35.2v3.2l-4.8 14.4c-1.6 4.8-3.2 8-6.4 12.8v1.6c-6.4 8-16 14.4-27.2 14.4-3.2 0-6.4 0-9.6-1.6l-8-3.2c-1.6 0-4.8-1.6-6.4-1.6-8 0-14.4 3.2-19.2 8-6.4 6.4-9.6 17.6-8 27.2l3.2 8c4.8 12.8-1.6 28.8-12.8 36.8h-1.6c-4.8 1.6-9.6 4.8-12.8 6.4l-14.4 4.8h-3.2c0 1.6-1.6 1.6-3.2 1.6z m-57.6-278.4c-46.4 0-84.8 38.4-84.8 84.8s38.4 84.8 84.8 84.8 84.8-38.4 84.8-84.8-36.8-84.8-84.8-84.8z"
    ></path>
</svg>
