<?xml version="1.0" standalone="no"?><!DOCTYPE svg PUBLIC "-//W3C//DTD SVG 1.1//EN" "http://www.w3.org/Graphics/SVG/1.1/DTD/svg11.dtd"><svg t="1651806464989" class="icon" viewBox="0 0 1024 1024" version="1.1" xmlns="http://www.w3.org/2000/svg" p-id="3454" width="512" height="512" xmlns:xlink="http://www.w3.org/1999/xlink"><defs><style type="text/css">@font-face { font-family: feedback-iconfont; src: url("//at.alicdn.com/t/font_1031158_u69w8yhxdu.woff2?t=1630033759944") format("woff2"), url("//at.alicdn.com/t/font_1031158_u69w8yhxdu.woff?t=1630033759944") format("woff"), url("//at.alicdn.com/t/font_1031158_u69w8yhxdu.ttf?t=1630033759944") format("truetype"); }
</style></defs><path d="M213.717333 173.162667l287.274667 287.232L788.202667 173.162667A8.533333 8.533333 0 0 1 794.24 170.666667h66.901333a8.533333 8.533333 0 0 1 6.037334 14.570666L546.496 505.898667l332.842667 332.864a8.533333 8.533333 0 0 1-6.037334 14.570666h-66.389333a8.533333 8.533333 0 0 1-6.037333-2.496L501.248 551.146667 201.514667 850.837333a8.533333 8.533333 0 0 1-6.016 2.496H128.64a8.533333 8.533333 0 0 1-6.037333-14.570666l333.12-333.12-320.426667-320.426667A8.533333 8.533333 0 0 1 141.333333 170.666667h66.346667a8.533333 8.533333 0 0 1 6.037333 2.496z" fill="#333333" p-id="3455"></path></svg>