<?xml version="1.0" standalone="no"?><!DOCTYPE svg PUBLIC "-//W3C//DTD SVG 1.1//EN" "http://www.w3.org/Graphics/SVG/1.1/DTD/svg11.dtd"><svg t="1710769090221" class="icon" viewBox="0 0 1024 1024" version="1.1" xmlns="http://www.w3.org/2000/svg" p-id="26160" xmlns:xlink="http://www.w3.org/1999/xlink" width="512" height="512"><path d="M149.76 960a26.24 26.24 0 0 1-10.24 0 31.36 31.36 0 0 1-20.48-40.32l128-384A32.64 32.64 0 0 1 275.84 512a32.64 32.64 0 0 1 30.72 21.76l128 384a31.36 31.36 0 0 1-18.56 42.24 32 32 0 0 1-40.96-19.84l-98.56-295.04-96.64 293.12a31.36 31.36 0 0 1-30.08 21.76z" fill="#4D4D4D" p-id="26161"></path><path d="M341.76 832h-128a32 32 0 0 1 0-64h128a32 32 0 0 1 0 64zM405.76 448h-256A32 32 0 0 1 128 396.16L339.2 128h-192a32 32 0 0 1 0-64h256a32.64 32.64 0 0 1 28.8 17.92 32.64 32.64 0 0 1-3.84 33.92L216.32 384h192a32 32 0 0 1 0 64zM725.76 896a32 32 0 0 1-32-32v-768a32 32 0 0 1 32-32 32 32 0 0 1 32 32v768a32 32 0 0 1-32 32z" fill="#4D4D4D" p-id="26162"></path><path d="M725.76 949.12a32.64 32.64 0 0 1-23.04-9.6l-181.12-181.12a32 32 0 0 1 0-44.8 32 32 0 0 1 45.44 0l158.72 158.08 158.08-158.08a32 32 0 0 1 45.44 0 32 32 0 0 1 0 44.8l-181.12 181.12a32 32 0 0 1-22.4 9.6z" fill="#4D4D4D" p-id="26163"></path></svg>