<?xml version="1.0" standalone="no"?><!DOCTYPE svg PUBLIC "-//W3C//DTD SVG 1.1//EN" "http://www.w3.org/Graphics/SVG/1.1/DTD/svg11.dtd"><svg t="1693999893323" class="icon" viewBox="0 0 1024 1024" version="1.1" xmlns="http://www.w3.org/2000/svg"  width="512" height="512" xmlns:xlink="http://www.w3.org/1999/xlink"><path d="M571.733333 682.666667h57.6V388.266667h-59.733333v183.466666l-117.333333-181.333333v-2.133333h-59.733334V682.666667h59.733334v-185.6l117.333333 183.466666v2.133334zM200.533333 320c34.133333-55.466667 83.2-100.266667 140.8-130.133333-12.8 36.266667-27.733333 85.333333-38.4 142.933333h96c8.533333-57.6 23.466667-119.466667 44.8-179.2h-4.266666c23.466667-4.266667 46.933333-6.4 72.533333-6.4 25.6 0 49.066667 2.133333 72.533333 8.533333 21.333333 59.733333 34.133333 123.733333 44.8 179.2H725.333333c-10.666667-57.6-25.6-104.533333-38.4-140.8 55.466667 29.866667 102.4 74.666667 136.533334 128 0 4.266667 2.133333 6.4 2.133333 10.666667h121.6C876.8 162.133333 708.266667 42.666667 512 42.666667 313.6 42.666667 145.066667 162.133333 74.666667 332.8h121.6c0-4.266667 2.133333-10.666667 4.266666-12.8zM981.333333 505.6h-177.066666V448h170.666666c-2.133333-21.333333-6.4-42.666667-10.666666-57.6H746.666667v177.066667h177.066666v59.733333H746.666667V682.666667h204.8c19.2-49.066667 25.6-98.133333 27.733333-142.933334v25.6l2.133333-59.733333zM275.2 622.933333V448s-4.266667-59.733333-59.733333-59.733333H59.733333c-17.066667 66.133333-32 181.333333 10.666667 294.4h145.066667c2.133333 0 59.733333 0 59.733333-59.733334z m-57.6 2.133334H100.266667v-179.2h117.333333v179.2zM689.066667 827.733333c10.666667-27.733333 17.066667-57.6 23.466666-83.2H618.666667c-14.933333 68.266667-32 113.066667-36.266667 125.866667-23.466667 4.266667-46.933333 6.4-72.533333 6.4-23.466667 0-44.8-2.133333-66.133334-6.4-2.133333-4.266667-21.333333-49.066667-36.266666-125.866667h-93.866667c6.4 29.866667 14.933333 57.6 25.6 87.466667-42.666667-21.333333-78.933333-53.333333-108.8-87.466667h-128C183.466667 885.333333 334.933333 981.333333 512 981.333333c174.933333 0 328.533333-96 409.6-236.8H789.333333c-27.733333 34.133333-59.733333 61.866667-100.266666 83.2z"  ></path></svg>
