<?xml version="1.0" standalone="no"?><!DOCTYPE svg PUBLIC "-//W3C//DTD SVG 1.1//EN" "http://www.w3.org/Graphics/SVG/1.1/DTD/svg11.dtd"><svg t="1694000343147" class="icon" viewBox="0 0 1024 1024" version="1.1" xmlns="http://www.w3.org/2000/svg" p-id="3191" width="512" height="512" xmlns:xlink="http://www.w3.org/1999/xlink"><path d="M303.701333 510.592c0-89.130667-56.832-126.72-142.848-126.72H80v255.829333h84.821333c82.048 0 138.88-40.362667 138.88-129.109333zM147.626667 590.549333v-157.866666h9.216c45.653333 0 77.653333 16.768 77.653333 77.525333s-32 79.957333-77.653333 79.957333l-9.216 0.384z m333.354666-74.368l72.021334 123.52h70.826666V383.914667h-66.389333v84.736c0 30.762667 5.546667 67.541333 9.173333 94.72h-2.005333l-28.416-56.746667-72.021333-122.709333H392.96v255.786666h66.474667v-84.736c0-30.762667-6.016-65.962667-8.832-94.72h2.005333l28.416 55.936z m406.613334-21.546666l-35.626667-12.373334c-25.216-8.448-43.648-14.037333-43.648-27.605333 0-13.610667 13.226667-20.394667 34.432-20.394667 21.205333 0 40.021333 6.826667 58.837333 18.773334l34.389334-36.778667c-24.789333-21.546667-59.989333-32.341333-93.226667-32.341333-60.842667 0-103.68 33.152-103.68 74.325333s28.032 57.173333 58.026667 67.157333l36.437333 13.226667c24.405333 8.746667 40.448 13.568 40.448 27.52 0 13.994667-12.032 21.589333-37.248 21.589333-25.173333 0-49.194667-10.368-69.632-25.173333l-39.210667 41.173333c29.610667 23.594667 69.632 35.2 106.837334 35.2 69.248 0 109.269333-36.010667 109.269333-76.8 0-34.730667-21.205333-55.125333-56.405333-67.498666zM298.112 182.826667A223.189333 223.189333 0 0 0 274.090667 320h64.853333a160.170667 160.170667 0 0 1 124.842667-188.672A160.384 160.384 0 0 1 652.672 256a154.581333 154.581333 0 0 1 0 63.573333h64.853333a223.189333 223.189333 0 0 0-24.021333-137.130666 388.437333 388.437333 0 0 1 134.826667 137.088h72.448C794.752 96.512 527.445333 1.365333 303.701333 107.306667a450.304 450.304 0 0 0-212.906666 212.650666h72.448a388.437333 388.437333 0 0 1 134.826666-137.130666z m395.392 657.92a223.189333 223.189333 0 0 0 23.978667-137.088h-64.853334a160.170667 160.170667 0 0 1-124.842666 188.672 160.384 160.384 0 0 1-188.885334-124.714667 154.581333 154.581333 0 0 1 0-63.573333H274.090667a223.189333 223.189333 0 0 0 24.021333 137.130666 388.437333 388.437333 0 0 1-134.869333-137.088H90.794667c106.069333 223.402667 373.376 318.549333 597.077333 212.608a450.304 450.304 0 0 0 212.906667-212.608h-72.448a390.613333 390.613333 0 0 1-134.826667 136.661334z" fill="#2c2c2c" p-id="3192"></path></svg>