<?xml version="1.0" standalone="no"?><!DOCTYPE svg PUBLIC "-//W3C//DTD SVG 1.1//EN" "http://www.w3.org/Graphics/SVG/1.1/DTD/svg11.dtd"><svg t="1708913170517" class="icon" viewBox="0 0 1130 1024" version="1.1" xmlns="http://www.w3.org/2000/svg"  width="565" height="512" xmlns:xlink="http://www.w3.org/1999/xlink"><path d="M593.521287 917.452588H130.862392a65.787664 65.787664 0 0 1-65.787663-65.787663V132.291125a65.787664 65.787664 0 0 1 65.787663-65.07258h786.59163a65.07258 65.07258 0 0 1 65.07258 65.07258v323.217652a316.066818 316.066818 0 0 1 65.787663 26.458082V132.291125a131.575327 131.575327 0 0 0-38.614498-92.245745 128.714994 128.714994 0 0 0-93.675912-40.044665h-786.59163A131.575327 131.575327 0 0 0 0.002148 132.291125v719.3738a130.860244 130.860244 0 0 0 130.860244 130.860244h500.55831a361.83215 361.83215 0 0 1-37.899415-65.072581z"  ></path><path d="M0.002148 263.151369h1046.881951v65.787664H0.002148zM607.10787 416.894279a32.178748 32.178748 0 0 0-30.748582-13.586583 32.178748 32.178748 0 0 0-26.458082 20.737416l-143.01666 332.513734a32.893832 32.893832 0 0 0 33.608915 45.765331 31.463665 31.463665 0 0 0 26.458082-20.022332l143.01666-332.513735a32.178748 32.178748 0 0 0-2.860333-32.893831zM248.136053 612.112019a20.737416 20.737416 0 0 1 0-27.888248l65.07258-64.357497a19.307249 19.307249 0 0 0 0-27.888249l-18.592165-18.592166a19.307249 19.307249 0 0 0-27.888249 0L155.890308 584.223771a19.307249 19.307249 0 0 0 0 27.888248l110.837911 110.837912a19.307249 19.307249 0 0 0 27.888249 0l20.737415-18.592166a19.307249 19.307249 0 0 0 0-27.888249z"  ></path><path d="M1127.688512 846.659342a26.458082 26.458082 0 0 1 0 15.016749 51.485998 51.485998 0 0 1-5.005583 17.877082 71.50833 71.50833 0 0 1-8.581 16.446916 50.055831 50.055831 0 0 1-11.441333 10.011167h-34.323998a63.642414 63.642414 0 0 0-16.446916 0l-15.731833 4.290499a22.882666 22.882666 0 0 0-14.301666 8.581 54.346331 54.346331 0 0 0-14.301666 28.603332 59.351914 59.351914 0 0 0 3.575417 31.463665 22.882666 22.882666 0 0 1 0 21.452499 21.452499 21.452499 0 0 1-10.011166 7.865916l-14.301666 8.581-17.877083 5.720666h-14.301666a10.726249 10.726249 0 0 1-9.296083 0 16.446916 16.446916 0 0 1-5.005583-7.150833 57.921747 57.921747 0 0 0-20.737416-27.888248 39.329581 39.329581 0 0 0-31.463665-12.156416 50.055831 50.055831 0 0 0-32.178748 12.156416 71.50833 71.50833 0 0 0-20.022333 27.173165 13.586583 13.586583 0 0 1-7.865916 8.581 30.748582 30.748582 0 0 1-11.441333 0h-15.731832l-18.592166-6.43575-12.871499-12.156416-10.72625-10.011166a14.301666 14.301666 0 0 1 0-7.865917 26.458082 26.458082 0 0 1 0-15.016749 45.050248 45.050248 0 0 0 4.2905-27.173165 41.474831 41.474831 0 0 0-13.586583-27.888249 32.178748 32.178748 0 0 0-17.161999-10.726249h-20.022332a87.955246 87.955246 0 0 0-22.882666 5.005583 24.312832 24.312832 0 0 1-14.301666 0 25.027915 25.027915 0 0 1-10.726249-12.156416 71.50833 71.50833 0 0 1-9.296083-16.446916 197.362991 197.362991 0 0 1-5.720667-19.307249 52.916164 52.916164 0 0 1 0-15.01675 17.877082 17.877082 0 0 1 9.296083-15.731832 65.07258 65.07258 0 0 0 30.033499-14.301666 46.480414 46.480414 0 0 0 0-64.357497 77.228996 77.228996 0 0 0-27.888249-20.022333 9.296083 9.296083 0 0 1-7.150833-7.150833 12.156416 12.156416 0 0 1 0-12.156416 29.318415 29.318415 0 0 1 0-15.731832 64.357497 64.357497 0 0 1 4.2905-15.731833l8.580999-14.301666a25.027915 25.027915 0 0 1 9.296083-10.011166h12.8715a61.497164 61.497164 0 0 0 32.178748 0 71.50833 71.50833 0 0 0 30.748582-14.301666 36.469248 36.469248 0 0 0 8.581-16.446916 35.039082 35.039082 0 0 0 0-17.161999V566.346688a34.323998 34.323998 0 0 1 5.005583-12.871499 50.055831 50.055831 0 0 1 17.161999-9.296083l18.592166-5.720666h15.016749a17.877082 17.877082 0 0 1 11.441333 4.290499l5.720666 8.581a57.921747 57.921747 0 0 0 17.877083 25.027915 49.340748 49.340748 0 0 0 30.748582 11.441333 50.770914 50.770914 0 0 0 29.318415-12.156416 60.066997 60.066997 0 0 0 20.022332-25.742999 22.167582 22.167582 0 0 1 6.43575-7.865916 10.726249 10.726249 0 0 1 8.581-5.005583h12.871499a77.94408 77.94408 0 0 1 17.161999 5.005583l15.016749 10.011166a60.78208 60.78208 0 0 1 11.441333 12.156416 12.156416 12.156416 0 0 1 6.43575 12.156416v6.43575a55.776497 55.776497 0 0 0-5.005583 32.178749 50.770914 50.770914 0 0 0 15.016749 29.318415 45.050248 45.050248 0 0 0 31.463665 13.586583 63.642414 63.642414 0 0 0 34.323999-5.720667h4.290499a25.027915 25.027915 0 0 1 10.72625 5.005583 45.050248 45.050248 0 0 1 13.586583 22.167583 85.094913 85.094913 0 0 1 7.865916 29.318415 15.016749 15.016749 0 0 1 0 13.586583 12.871499 12.871499 0 0 1-7.865916 7.150833 58.636831 58.636831 0 0 0-27.173166 20.022332 47.910581 47.910581 0 0 0-11.441333 33.608915 45.050248 45.050248 0 0 0 8.581 30.033499 55.776497 55.776497 0 0 0 25.742999 19.307249l6.43575 4.2905a22.882666 22.882666 0 0 1 7.865916 12.156416z m-240.267989 46.480414a134.43566 134.43566 0 0 0 44.335165-7.865916 143.01666 143.01666 0 0 0 36.469248-25.027916 143.01666 143.01666 0 0 0 24.312832-37.184331 117.273661 117.273661 0 0 0 0-87.955246 133.720577 133.720577 0 0 0-24.312832-35.039082 90.100496 90.100496 0 0 0-36.469248-25.027915 120.133994 120.133994 0 0 0-44.335165-9.296083 114.413328 114.413328 0 0 0-94.390996 50.770914 117.988744 117.988744 0 0 0 13.586583 143.01666 143.01666 143.01666 0 0 0 36.469248 25.027916 134.43566 134.43566 0 0 0 44.335165 7.865916z m0 0"  ></path></svg>
