<?xml version="1.0" standalone="no"?><!DOCTYPE svg PUBLIC "-//W3C//DTD SVG 1.1//EN" "http://www.w3.org/Graphics/SVG/1.1/DTD/svg11.dtd"><svg t="1674957291977" class="icon" viewBox="0 0 1024 1024" version="1.1" xmlns="http://www.w3.org/2000/svg" p-id="4325" width="512" height="512" xmlns:xlink="http://www.w3.org/1999/xlink"><path d="M377.250909 373.992727H178.734545a104.96 104.96 0 0 1-104.727272-104.727272V165.469091a104.96 104.96 0 0 1 104.727272-104.727273h198.516364a104.96 104.96 0 0 1 104.727273 104.727273v103.796364a104.96 104.96 0 0 1-104.727273 104.727272zM178.734545 130.56a34.909091 34.909091 0 0 0-34.90909 34.909091v103.796364a34.909091 34.909091 0 0 0 34.90909 34.90909h198.516364a34.909091 34.909091 0 0 0 34.909091-34.90909V165.469091a34.909091 34.909091 0 0 0-34.909091-34.909091zM380.043636 963.258182H181.527273a104.96 104.96 0 0 1-104.727273-104.727273v-316.509091a104.96 104.96 0 0 1 104.727273-104.727273h198.516363a104.96 104.96 0 0 1 104.727273 104.727273v316.509091a104.96 104.96 0 0 1-104.727273 104.727273zM181.527273 507.112727a34.909091 34.909091 0 0 0-34.909091 34.909091v316.509091a34.909091 34.909091 0 0 0 34.909091 34.909091h198.516363a34.909091 34.909091 0 0 0 34.909091-34.909091v-316.509091a34.909091 34.909091 0 0 0-34.909091-34.909091zM842.472727 963.258182h-198.516363a104.96 104.96 0 0 1-104.727273-104.727273v-103.796364a104.96 104.96 0 0 1 104.727273-104.727272h198.516363a104.96 104.96 0 0 1 104.727273 104.727272v103.796364a104.96 104.96 0 0 1-104.727273 104.727273z m-198.516363-243.432727a34.909091 34.909091 0 0 0-34.909091 34.90909v103.796364a34.909091 34.909091 0 0 0 34.909091 34.909091h198.516363a34.909091 34.909091 0 0 0 34.909091-34.909091v-103.796364a34.909091 34.909091 0 0 0-34.909091-34.90909zM845.265455 586.705455h-198.516364a104.96 104.96 0 0 1-104.727273-104.727273V165.469091a104.96 104.96 0 0 1 104.727273-104.727273h198.516364a104.96 104.96 0 0 1 104.727272 104.727273v316.509091a104.96 104.96 0 0 1-104.727272 104.727273z m-198.516364-456.145455a34.909091 34.909091 0 0 0-34.909091 34.909091v316.509091a34.909091 34.909091 0 0 0 34.909091 34.909091h198.516364a34.909091 34.909091 0 0 0 34.90909-34.909091V165.469091a34.909091 34.909091 0 0 0-34.90909-34.909091z" p-id="4326" fill="#333333"></path></svg>