<?xml version="1.0" standalone="no"?><!DOCTYPE svg PUBLIC "-//W3C//DTD SVG 1.1//EN" "http://www.w3.org/Graphics/SVG/1.1/DTD/svg11.dtd"><svg t="1658055739623" class="icon" viewBox="0 0 1024 1024" version="1.1" xmlns="http://www.w3.org/2000/svg"  width="1024" height="1024" xmlns:xlink="http://www.w3.org/1999/xlink"><defs><style type="text/css">@font-face { font-family: feedback-iconfont; src: url("//at.alicdn.com/t/font_1031158_u69w8yhxdu.woff2?t=1630033759944") format("woff2"), url("//at.alicdn.com/t/font_1031158_u69w8yhxdu.woff?t=1630033759944") format("woff"), url("//at.alicdn.com/t/font_1031158_u69w8yhxdu.ttf?t=1630033759944") format("truetype"); }
</style></defs><path d="M246.4 258.304l-83.84-83.84 46.464-46.4L309.12 228.288A543.04 543.04 0 0 1 512 190.72c211.968 0 382.592 107.136 512 321.28-58.688 98.56-126.464 174.464-203.456 227.648l109.888 109.888-46.4 46.4-121.408-121.408a517.504 517.504 0 0 1-1.088 0.576l-68.224-68.224 1.216-0.512-117.312-117.312-0.896 0.832L435.2 448.832l0.768-0.96L313.6 325.376a435.968 435.968 0 0 0-1.152 0.576L245.376 258.944l1.088-0.64z m509.248 416.448c60.8-37.76 115.456-91.712 164.48-162.432-108.736-155.136-242.88-229.76-408.128-229.76-46.08 0-89.728 5.76-131.072 17.472l112.32 112.32c6.144-1.28 12.48-1.92 19.008-1.92 54.272 0 98.368 45.696 98.368 102.016 0 5.44-0.448 10.816-1.28 16l146.304 146.304z m-566.4-379.2L253.44 359.808c-54.592 37.12-104.32 87.808-149.632 152.512 107.2 154.688 241.28 229.12 408.128 229.12 38.72 0 75.712-3.968 111.04-12.096l73.6 73.6A553.984 553.984 0 0 1 512 833.28c-213.888 0-384.512-107.136-512-321.28 55.488-91.84 118.592-163.968 189.248-216.448zM508.032 614.4L414.144 520.448c3.84 51.2 44.096 91.776 93.888 93.952z"  ></path></svg>
