<?xml version="1.0" standalone="no"?><!DOCTYPE svg PUBLIC "-//W3C//DTD SVG 1.1//EN" "http://www.w3.org/Graphics/SVG/1.1/DTD/svg11.dtd"><svg t="1658055731787" class="icon" viewBox="0 0 1024 1024" version="1.1" xmlns="http://www.w3.org/2000/svg"  width="1024" height="1024" xmlns:xlink="http://www.w3.org/1999/xlink"><defs><style type="text/css">@font-face { font-family: feedback-iconfont; src: url("//at.alicdn.com/t/font_1031158_u69w8yhxdu.woff2?t=1630033759944") format("woff2"), url("//at.alicdn.com/t/font_1031158_u69w8yhxdu.woff?t=1630033759944") format("woff"), url("//at.alicdn.com/t/font_1031158_u69w8yhxdu.ttf?t=1630033759944") format("truetype"); }
</style></defs><path d="M512 283.456c-165.248 0-299.392 74.304-408.128 228.864 107.2 154.112 241.28 228.224 408.128 228.224 166.848 0 300.928-74.112 408.128-228.224C811.392 357.76 677.248 283.52 512 283.52zM512 832c-213.888 0-384.512-106.688-512-320 129.408-213.312 300.032-320 512-320 211.968 0 382.592 106.688 512 320-127.488 213.312-298.112 320-512 320z m0-137.152a182.848 182.848 0 1 0 0-365.696 182.848 182.848 0 0 0 0 365.696zM512 576a64 64 0 1 1 0-128 64 64 0 0 1 0 128z"  ></path></svg>
