<?xml version="1.0" standalone="no"?><!DOCTYPE svg PUBLIC "-//W3C//DTD SVG 1.1//EN" "http://www.w3.org/Graphics/SVG/1.1/DTD/svg11.dtd"><svg t="1647048771112" class="icon" viewBox="0 0 1025 1024" version="1.1" xmlns="http://www.w3.org/2000/svg" p-id="2198" width="512.5" height="512" xmlns:xlink="http://www.w3.org/1999/xlink"><defs><style type="text/css"></style></defs><path d="M939.2 128H486.4l-4.8-17.6c-8-17.6-25.6-25.6-43.2-25.6H43.2C17.6 84.8 0 102.4 0 128v768c0 25.6 17.6 43.2 43.2 43.2h939.2c25.6 0 43.2-17.6 43.2-43.2V212.8C1024 166.4 985.6 128 939.2 128z m0 84.8v84.8h-384l-33.6-84.8h417.6z m0 640H84.8V171.2h324.8l64 158.4c12.8 33.6 43.2 56 81.6 56h384v467.2z" p-id="2199" fill="#333333"></path></svg>