<?xml version="1.0" standalone="no"?><!DOCTYPE svg PUBLIC "-//W3C//DTD SVG 1.1//EN" "http://www.w3.org/Graphics/SVG/1.1/DTD/svg11.dtd"><svg t="1700719835425" class="icon" viewBox="0 0 1024 1024" version="1.1" xmlns="http://www.w3.org/2000/svg" p-id="4356" xmlns:xlink="http://www.w3.org/1999/xlink" width="1024" height="1024"><path d="M575.829333 211.057778L458.296889 79.644444H79.644444v659.911112h864.711112V211.057778z m-140.856889-79.644445l70.656 79.644445H131.982222v-79.644445zM892.017778 687.217778H131.982222V263.395556h760.035556z" fill="#F5A333" p-id="4357"></path><path d="M485.831111 713.272889h52.337778v204.8h-52.337778z" fill="#F5A333" p-id="4358"></path><path d="M79.644444 838.542222h864.711112v52.337778H79.644444z" fill="#F5A333" p-id="4359"></path><path d="M273.521778 807.822222h456.362666v113.777778H273.521778zM240.298667 591.644444V371.712h150.755555v37.205333H284.444444v52.110223h91.818667v37.205333H284.444444V591.644444zM477.184 591.644444V408.917333H411.875556v-37.205333h174.762666v37.205333h-65.080889V591.644444zM615.310222 591.644444V371.712h71.224889A261.688889 261.688889 0 0 1 739.555556 375.466667a57.685333 57.685333 0 0 1 31.630222 21.504 68.266667 68.266667 0 0 1 12.743111 42.894222 72.021333 72.021333 0 0 1-7.281778 34.133333 61.44 61.44 0 0 1-18.659555 21.731556 64.967111 64.967111 0 0 1-22.755556 10.353778 247.239111 247.239111 0 0 1-45.511111 3.185777H659.911111V591.644444zM659.911111 408.917333v62.464h24.234667a111.616 111.616 0 0 0 35.157333-3.527111 28.103111 28.103111 0 0 0 13.880889-10.808889 29.809778 29.809778 0 0 0 5.006222-17.066666 28.672 28.672 0 0 0-7.054222-19.797334 30.606222 30.606222 0 0 0-17.863111-9.784889 227.555556 227.555556 0 0 0-31.971556-1.479111z" fill="#F5A333" p-id="4360"></path></svg>