<?xml version="1.0" standalone="no"?><!DOCTYPE svg PUBLIC "-//W3C//DTD SVG 1.1//EN"
  "http://www.w3.org/Graphics/SVG/1.1/DTD/svg11.dtd">
<svg class="icon" viewBox="0 0 2586 1024" version="1.1" xmlns="http://www.w3.org/2000/svg" p-id="4471"
     width="646.5" height="256" xmlns:xlink="http://www.w3.org/1999/xlink">
  <path
    d="M192.026947 345.303579c-4.958316 0-6.144-2.479158-3.718736-6.197895l26.031157-33.414737c2.425263-3.718737 8.623158-6.197895 13.581474-6.197894h442.260211c4.958316 0 6.197895 3.772632 3.772631 7.437473l-21.018947 32.175158c-2.533053 3.772632-8.730947 7.437474-12.449684 7.437474l-448.458106-1.239579zM4.958316 459.290947c-4.958316 0-6.144-2.479158-3.664842-6.144l25.977263-33.468631c2.479158-3.772632 8.623158-6.197895 13.635368-6.197895H605.776842c4.904421 0 7.383579 3.772632 6.144 7.383579l-9.916631 29.749895c-1.239579 5.012211-6.197895 7.491368-11.156211 7.491368L4.958316 459.290947zM304.720842 573.278316c-4.904421 0-6.144-3.772632-3.664842-7.437474l17.300211-30.989474c2.479158-3.718737 7.491368-7.383579 12.395789-7.383579h247.808c4.958316 0 7.383579 3.664842 7.383579 8.623158l-2.425263 29.749895c0 4.958316-4.958316 8.623158-8.730948 8.623158l-270.012631-1.185684zM1590.649263 323.045053c-78.039579 19.833263-131.287579 34.654316-208.141474 54.487579-18.593684 4.958316-19.779368 6.197895-35.947789-12.39579-18.539789-21.018947-32.175158-34.708211-58.206316-47.050105-78.039579-38.373053-153.6-27.324632-224.202105 18.593684-84.237474 54.433684-127.568842 135.006316-126.383158 235.358316 1.293474 99.058526 69.416421 180.870737 167.235368 194.45221 84.291368 11.156211 154.893474-18.539789 210.620632-81.758315 11.156211-13.635368 21.018947-28.510316 33.468632-45.810527h-239.077053c-26.031158 0-32.175158-16.114526-23.552-37.133473 16.060632-38.480842 45.810526-102.831158 63.164632-135.060211a33.414737 33.414737 0 0 1 30.989473-19.833263h450.937263c-2.479158 33.468632-2.479158 66.883368-7.437473 100.352-13.635368 89.195789-47.104 170.954105-101.645474 242.795789-89.141895 117.706105-205.608421 190.787368-353.010526 210.620632-121.424842 16.060632-234.172632-7.437474-333.285053-81.758316-91.621053-69.416421-143.683368-161.091368-157.264842-275.024842-16.168421-135.060211 23.498105-256.377263 105.256421-362.981053 87.956211-115.226947 204.422737-188.254316 346.866526-214.339368 116.466526-21.018947 227.974737-7.383579 328.326737 60.739368 65.643789 43.331368 112.747789 102.831158 143.683369 174.618948 7.437474 11.210105 2.425263 17.354105-12.39579 21.126737"
    ></path>
  <path
    d="M2295.538526 507.634526c-1.239579-16.114526-1.239579-28.564211-3.664842-40.906105-22.312421-122.610526-135.114105-191.973053-252.766316-164.75621-115.226947 25.977263-189.547789 99.166316-216.764631 215.578947-22.366316 96.633263 24.737684 194.506105 113.933474 234.172631 68.122947 29.696 136.245895 25.977263 201.889684-7.491368 97.926737-50.822737 151.228632-130.048 157.372631-236.597895m-294.80421 500.466527c-112.747789-2.479158-215.578947-34.654316-302.349474-108.975158C1625.357474 835.907368 1579.439158 755.388632 1564.618105 659.994947 1542.305684 520.030316 1580.732632 396.126316 1665.024 285.911579c90.327579-118.945684 199.410526-180.870737 346.812632-206.95579C2138.165895 56.697263 2257.111579 69.093053 2364.901053 142.228211c97.872842 66.937263 158.558316 157.372632 174.726736 276.264421 21.018947 167.235368-27.324632 303.481263-142.497684 419.947789-81.758316 82.997895-182.056421 135.060211-297.337263 158.558316-33.414737 6.197895-66.829474 7.491368-99.058526 11.15621"
    ></path>
</svg>
