<?xml version="1.0" standalone="no"?><!DOCTYPE svg PUBLIC "-//W3C//DTD SVG 1.1//EN" "http://www.w3.org/Graphics/SVG/1.1/DTD/svg11.dtd"><svg t="1727447072569" class="icon" viewBox="0 0 1024 1024" version="1.1" xmlns="http://www.w3.org/2000/svg" p-id="4256" xmlns:xlink="http://www.w3.org/1999/xlink" width="512" height="512"><path d="M825.880381 134.192762l51.736381 51.736381-655.116191 655.11619-51.736381-51.736381 655.116191-655.11619z m-21.479619 191.585524c41.301333 39.497143 81.310476 87.942095 120.027428 145.310476a73.142857 73.142857 0 0 1 2.755048 77.385143l-2.755048 4.437333-6.92419 10.118095C795.184762 740.303238 659.992381 828.952381 512 828.952381c-58.441143 0-114.858667-13.824-169.301333-41.447619l55.100952-55.100952c37.449143 15.701333 75.50781 23.405714 114.200381 23.405714 120.880762 0 235.471238-75.142095 345.088-234.008381l6.704762-9.801143-6.729143-9.825524c-34.279619-49.688381-69.046857-91.184762-104.350476-124.708571l51.687619-51.687619zM512 195.047619c51.44381 0 101.302857 10.703238 149.650286 32.109714l-56.466286 56.490667A289.401905 289.401905 0 0 0 512 268.190476c-120.880762 0-235.471238 75.142095-345.088 234.008381L160.207238 512l6.729143 9.825524c29.549714 42.812952 59.440762 79.530667 89.721905 110.34819l-51.663238 51.663238c-36.132571-36.693333-71.289905-80.335238-105.423238-130.925714a73.142857 73.142857 0 0 1-2.755048-77.385143l2.755048-4.437333 6.92419-10.118095C228.815238 283.696762 364.007619 195.047619 512 195.047619z m152.795429 270.384762a161.694476 161.694476 0 0 1-205.799619 205.799619l65.097142-65.097143a88.600381 88.600381 0 0 0 75.629715-75.629714l65.072762-65.097143zM512 356.717714c6.41219 0 12.751238 0.365714 18.968381 1.097143l-179.541333 179.565714A161.694476 161.694476 0 0 1 512 356.742095z" p-id="4257"></path></svg>