<?xml version="1.0" standalone="no"?><!DOCTYPE svg PUBLIC "-//W3C//DTD SVG 1.1//EN" "http://www.w3.org/Graphics/SVG/1.1/DTD/svg11.dtd"><svg t="1710766086736" class="icon" viewBox="0 0 1024 1024" version="1.1" xmlns="http://www.w3.org/2000/svg"  xmlns:xlink="http://www.w3.org/1999/xlink" width="512" height="512"><path d="M569.6 729.6c38.4 0 57.6-32 57.6-70.4 0-38.4-19.2-70.4-57.6-70.4-38.4-6.4-57.6 25.6-57.6 64 0 44.8 19.2 76.8 57.6 76.8z" ></path><path d="M953.6 492.8s-6.4-6.4-12.8-6.4h-64V307.2c0-6.4 0-12.8-6.4-19.2l-192-204.8c-6.4-6.4-19.2-12.8-25.6-6.4-6.4 0-12.8 6.4-12.8 19.2v204.8c0 12.8 12.8 25.6 25.6 25.6H832v160H192V115.2h403.2c12.8 0 25.6-12.8 25.6-25.6S608 64 595.2 64H185.6c-25.6 0-38.4 19.2-38.4 38.4v384h-64c-6.4 0-12.8 6.4-12.8 12.8v326.4c0 6.4 6.4 12.8 12.8 12.8h64v76.8c0 19.2 19.2 38.4 38.4 38.4h659.2c19.2 0 38.4-19.2 38.4-38.4v-76.8h64c6.4 0 12.8-6.4 12.8-12.8V499.2s0-6.4-6.4-6.4zM691.2 275.2V160l115.2 121.6H691.2zM569.6 550.4c57.6 0 96 38.4 96 102.4 0 57.6-32 102.4-96 102.4s-96-44.8-96-102.4c0-57.6 38.4-102.4 96-102.4z m-192 115.2c-51.2-12.8-64-32-64-57.6 0-32 19.2-57.6 70.4-57.6s70.4 25.6 76.8 57.6H416c0-12.8-12.8-25.6-38.4-25.6-19.2 0-32 6.4-32 25.6 0 12.8 6.4 19.2 44.8 32 57.6 12.8 70.4 38.4 70.4 64 0 32-25.6 57.6-76.8 57.6-51.2 0-76.8-25.6-83.2-57.6h38.4c6.4 19.2 19.2 32 44.8 32 25.6 0 38.4-12.8 38.4-25.6 0-25.6-6.4-32-44.8-44.8z m-172.8 57.6H224c19.2 0 25.6-12.8 25.6-32V556.8H288v140.8c0 44.8-12.8 64-57.6 64h-25.6v-38.4zM832 908.8H192v-70.4h640v70.4z m25.6-153.6h-44.8c-25.6-38.4-76.8-140.8-89.6-160v166.4h-32V556.8H736c25.6 44.8 76.8 134.4 89.6 153.6V556.8h32v198.4z" ></path></svg>
