<?xml version="1.0" standalone="no"?><!DOCTYPE svg PUBLIC "-//W3C//DTD SVG 1.1//EN"
  "http://www.w3.org/Graphics/SVG/1.1/DTD/svg11.dtd">
<svg class="icon" viewBox="0 0 1024 1024" version="1.1" xmlns="http://www.w3.org/2000/svg" width="500"
     height="500" xmlns:xlink="http://www.w3.org/1999/xlink">
  <path
    d="M779.83616 240.49152C704.92544 167.94752 605.32736 128 499.38816 128c-0.0064 0 0.00768 0-0.00128 0-105.93024 0-205.53984 39.95392-280.44416 112.49152-0.34432 0.33408-1.41184 1.37088-2.944 2.86336l12.10112-43.72992c3.72736-13.46816-4.52864-27.31392-18.43584-30.92352-13.9136-3.61216-28.2048 4.384-31.93216 17.85344l-37.28 134.72768c-2.41152 8.71424 0.16128 18.0096 6.74688 24.38784 4.95488 4.79744 11.61344 7.39456 18.43712 7.39456 2.25024 0 4.51712-0.28288 6.74816-0.86016l139.12448-36.10112c13.90848-3.6096 22.1632-17.45408 18.43584-30.92352-3.72608-13.46816-18.02496-21.46176-31.93216-17.85344l-45.12128 11.70816c1.1904-1.1584 2.19776-2.13632 2.92224-2.84032 65.0624-63.00416 151.5648-97.70368 243.57376-97.70112 92.00896 0 178.51392 34.69696 243.57376 97.70112 134.30784 130.0608 134.30784 341.68448 0.00128 471.744-134.30656 130.05568-352.83968 130.05952-487.1488 0-34.0608-32.9856-60.1152-71.5584-77.43872-114.6432-5.22368-12.992-20.33792-19.424-33.75488-14.36928-13.41824 5.05856-20.06144 19.69408-14.83648 32.68736 19.96032 49.64736 49.95584 94.07104 89.15968 132.03072 74.90816 72.54272 174.50752 112.49024 280.44544 112.49024 105.94048 0 205.53856-39.95008 280.448-112.49024C854.74688 711.104 896.00128 614.656 896 512.06784 896 409.47968 854.74688 313.03296 779.83616 240.49152z"></path>

  <path class="doc" d="M689.95 370.474H335.935c-11.911 0-21.563 9.06-21.563 20.239s9.652 20.242 21.563 20.242H689.95c11.91 0 21.566-9.063 21.566-20.242 0.001-11.179-9.656-20.239-21.566-20.239z m0 119.492H335.935c-11.911 0-21.563 9.063-21.563 20.242s9.652 20.239 21.563 20.239H689.95c11.91 0 21.566-9.061 21.566-20.239 0.001-11.178-9.656-20.242-21.566-20.242z m-93.441 119.495H335.935c-11.911 0-21.563 9.063-21.563 20.242s9.652 20.24 21.563 20.24h260.574c11.91 0 21.563-9.061 21.563-20.24s-9.653-20.242-21.563-20.242z m0 0"></path>
</svg>
