<?xml version="1.0" standalone="no"?><!DOCTYPE svg PUBLIC "-//W3C//DTD SVG 1.1//EN" "http://www.w3.org/Graphics/SVG/1.1/DTD/svg11.dtd"><svg t="1681098562321" class="icon" viewBox="0 0 1344 1024" version="1.1" xmlns="http://www.w3.org/2000/svg"  width="1344" height="1024" xmlns:xlink="http://www.w3.org/1999/xlink"><path d="M285.927701 739.735548C319.63773 667.19822 412.836043 596.579868 441.620697 585.6417c28.784654-11.897657 71.385942-38.763334 167.590654-60.639672 97.228165-22.835826 189.46699-54.626877 246.012844-128.251626 57.505342-72.537329 120.000025-203.795352 120.000025-203.795351S1040.661334 67.709822 1122.025956 46.856939c81.300657-21.876337 124.925399-18.86994 145.778282-28.784654 21.748405-9.97868 20.788917-11.961623 44.648197-16.950963 23.795314-4.98934 30.703631 23.85928 30.703631 23.85928s3.006397 43.752674-7.931771 72.601295c-10.874203 28.784654-44.648197 67.547988-77.398737 95.373154-33.646062 27.889132-78.294259 75.607692-88.272939 158.1237-9.850748 82.516009-32.622608 165.032017-32.622608 165.032017l-40.746277 170.980846s-24.754803 129.211114 49.637537 171.940335c-23.795314 36.780391-142.835851 52.7079-179.552277-22.835826-66.460568 25.842223-70.362488 104.392346-113.027742 132.217511-43.688708 27.825166-113.091708 61.59916-182.494707 54.690843 62.430717-90.511746 82.324111-150.127963 82.324111-150.127963s-243.070413-46.695106-315.415844-31.855017c-72.409397 14.96802-79.317714 20.916849-144.818794 70.618352-65.437114 50.724957-106.119425 78.550123-183.454196 78.550123-77.398737 0-85.330508-10.938169-88.272939-28.84862-3.006397-17.910451 47.590628-52.7079 47.590628-52.707901s-42.665254 3.006397-52.579968-7.931771C6.204829 889.863512 0.256 883.914683 0.256 883.914683s29.744143-47.71856 97.228165-51.684446c70.362488-4.029852 116.034139-9.97868 116.03414-9.97868s38.635403-9.914714 72.409396-82.516009zM1116.013162 139.351628s18.86994 24.882734 47.654594 3.006397c29.744143-20.852883 16.823031-46.695106 16.823031-46.695105s-22.77186-3.006397-42.601288 8.955225c-18.86994 10.874203-21.876337 34.733483-21.876337 34.733483zM1257.889524 61.760994c-24.818768 31.791051-34.733483 47.71856-50.597025 86.481894-4.98934 17.910451 1.982943 7.931771 4.98934 3.006397 7.931771-27.825166 34.669517-67.611954 50.533059-88.464837 9.914714-9.97868 1.982943-9.97868-4.925374-1.023454z m6.908317 7.931771c-24.754803 31.855017-34.669517 60.639671-41.577834 82.516009 0 13.944566 1.918977 7.995737 4.925374 3.965885 1.918977-22.835826 23.795314-62.622614 40.618346-83.475497 8.955226-8.955226 3.006397-10.938169-3.965886-3.006397z m5.948829 7.036249c-23.795314 39.658857-24.754803 62.558648-27.7612 81.492554 0 13.8806 3.006397 4.925374 5.948828 0.959489 1.023454-21.876337 10.874203-54.690843 25.778257-78.550123 8.955226-8.955226 3.006397-11.897657-3.965885-3.965886z m6.972283 5.884862c-20.852883 43.752674-15.863543 59.680183-18.86994 78.550123 3.006397 6.972283 3.006397 1.982943 5.948828-1.918977 1.023454-21.940303 1.982943-47.782526 16.886997-71.641805 5.948829-7.931771 2.942431-13.8806-3.965885-4.989341z"  ></path></svg>
