<svg viewBox="0 0 1024 1024" version="1.1" xmlns="http://www.w3.org/2000/svg"
     width="1024" height="1024" xmlns:xlink="http://www.w3.org/1999/xlink">
    <path d="M434.7904 819.2m-42.1888 0a20.6 20.6 0 1 0 84.3776 0 20.6 20.6 0 1 0-84.3776 0Z"></path>
    <path d="M589.2096 819.2m-42.1888 0a20.6 20.6 0 1 0 84.3776 0 20.6 20.6 0 1 0-84.3776 0Z"></path>
    <path d="M841.1136 162.6112l-164.864 0C645.12 163.0208 525.7216 372.3264 512 372.3264c-2.048 0-6.3488-4.5056-12.0832-12.0832 0 0 0 0 0 0-5.5296-7.168-12.6976-17.2032-20.6848-28.8768-39.3216-57.5488-101.7856-156.672-127.5904-167.5264-0.2048 0-0.4096-0.2048-0.6144-0.2048-0.2048 0-0.4096-0.2048-0.6144-0.2048-0.4096 0-0.6144-0.2048-0.8192-0.2048-0.2048 0-0.4096 0-0.6144-0.2048-0.4096 0-1.024-0.2048-1.4336-0.2048L182.8864 162.816C125.952 523.4688 155.648 861.3888 155.648 861.3888l177.9712 0c-0.4096-2.048-0.8192-4.096-1.2288-6.5536 0-0.2048 0-0.2048 0-0.4096 0-0.4096-0.2048-0.8192-0.2048-1.4336 0-0.4096-0.2048-0.8192-0.2048-1.2288-14.1312-79.0528-48.5376-314.1632-44.8512-429.056 0 0 0-0.2048 0-0.2048 0-1.2288 0-2.2528 0.2048-3.2768 0-0.2048 0-0.2048 0-0.4096 0-1.024 0-2.048 0.2048-3.072 0-0.2048 0-0.4096 0-0.6144 0-1.024 0-1.8432 0.2048-2.8672 0-0.2048 0-0.6144 0-0.8192 0-0.8192 0.2048-1.6384 0.2048-2.4576 0-0.4096 0-0.6144 0-1.024 0-0.8192 0.2048-1.4336 0.2048-2.2528 0-0.4096 0-0.8192 0-1.2288 0-0.6144 0.2048-1.2288 0.2048-2.048 0-0.4096 0-0.8192 0.2048-1.4336 0-0.6144 0.2048-1.2288 0.2048-1.6384 0-0.4096 0.2048-1.024 0.2048-1.4336 0-0.4096 0.2048-1.024 0.2048-1.4336 0-0.6144 0.2048-1.024 0.2048-1.6384 0-0.4096 0-0.8192 0.2048-1.2288 0-0.6144 0.2048-1.2288 0.2048-1.8432 0-0.4096 0-0.6144 0.2048-1.024 0-0.6144 0.2048-1.2288 0.2048-1.8432 0-0.2048 0-0.6144 0.2048-0.8192 0.2048-0.6144 0.2048-1.2288 0.4096-2.048 0-0.2048 0-0.4096 0.2048-0.6144 0.2048-0.6144 0.2048-1.4336 0.4096-2.048 0-0.2048 0-0.2048 0-0.4096 0.2048-0.8192 0.2048-1.4336 0.4096-2.048 0 0 0-0.2048 0-0.2048 0.2048-0.8192 0.4096-1.4336 0.4096-2.2528 0 0 0 0 0 0 3.072-12.9024 7.9872-20.2752 14.5408-20.48 2.8672 0.4096 6.7584 4.7104 11.6736 12.0832-0.2048 0-0.2048 0-0.4096 0 39.936 60.2112 139.4688 337.1008 139.4688 337.1008s27.2384-3.4816 54.6816-3.4816 54.6816 3.4816 54.6816 3.4816 0 0 0-0.2048c2.8672-8.192 124.1088-344.6784 150.7328-348.9792 47.3088 1.2288-2.8672 361.6768-23.3472 481.8944 0 0.4096-0.2048 0.8192-0.2048 1.2288-0.2048 1.024-0.4096 2.048-0.4096 2.8672-0.2048 1.024-0.4096 2.048-0.4096 2.8672 0 0.6144-0.2048 1.024-0.2048 1.6384-0.2048 1.2288-0.4096 2.4576-0.6144 3.4816 0 0.4096-0.2048 0.6144-0.2048 1.024-0.2048 1.2288-0.4096 2.4576-0.6144 3.6864 0 0.2048 0 0.4096 0 0.6144-0.2048 1.2288-0.4096 2.4576-0.6144 3.6864L868.352 860.9792C868.352 861.3888 898.048 523.4688 841.1136 162.6112z"></path>
</svg>
