<svg class="icon" viewBox="0 0 1024 1024" version="1.1" xmlns="http://www.w3.org/2000/svg"
     width="1024" height="1024" xmlns:xlink="http://www.w3.org/1999/xlink">
    <path d="M415.93 223.79c0-52.98 43.004-95.984 95.984-95.984s95.984 43.004 95.984 95.984-43.004 95.984-95.984 95.984-95.984-43.003-95.984-95.984zM415.93 511.742c0-52.98 43.004-95.984 95.984-95.984s95.984 43.004 95.984 95.984-43.004 95.984-95.984 95.984-95.984-43.004-95.984-95.984zM415.93 799.866c0-52.98 43.004-95.984 95.984-95.984s95.984 43.003 95.984 95.984-43.004 95.983-95.984 95.983-95.984-43.175-95.984-95.983z"></path>
</svg>
