<svg viewBox="0 0 1024 1024" version="1.1" xmlns="http://www.w3.org/2000/svg"
     width="1024" height="1024" xmlns:xlink="http://www.w3.org/1999/xlink">
    <path d="M76 7c6.865 1.112 13.925 1.554 20.551 3.487 11.125 3.245 22.397 6.533 32.845 11.43 19.245 9.021 38.972 17.362 55.984 30.513 8.038 6.214 15.753 12.845 23.803 19.041 1.819 1.4 4.386 2.398 6.671 2.536 32.402 1.939 64.659 4.352 96.04 13.848 20.175 6.104 38.083 16.364 55.934 27.068 50.754 30.435 98.472 65.095 140.876 106.328 21.295 20.708 40.208 44.026 58.892 67.216 21.088 26.173 41.805 52.904 56.582 83.307 10.662 21.938 18.83 45.076 29.098 67.221 21.048 45.396 42.703 90.511 64.231 135.683 5.94 12.463 12.41 24.673 18.455 37.087 3.471 7.128 8.763 12.405 16.183 14.708 59.064 18.328 109.807 51.053 157.049 89.998 12.078 9.957 24.638 19.329 36.969 28.979 9.102 7.123 17.123 15.207 23.798 24.751 5.023 7.184 10.879 13.792 16.479 20.561 2.923 3.532 2.511 5.887-2.568 7.612-18.689 6.351-37.304 12.727-57.048 15.619-22.653 3.319-45.087 8.132-67.632 12.212-6.529 1.182-13.111 2.074-20.993 3.308 2.001 3.517 3.391 6.974 5.637 9.735 11.066 13.61 24.407 24.717 39.954 32.705 32.593 16.746 60.129 39.903 85.343 66.051 9.241 9.584 17.694 19.923 26.682 29.759 3.814 4.176 8.011 8.015 12.148 11.884 7.791 7.287 14.545 15.113 14.629 27.306-1.227-0.278-2.638-0.326-3.784-0.9-11.873-5.948-23.572-12.26-35.569-17.942-47.927-22.701-96.104-44.881-143.869-67.914-30.693-14.802-60.464-31.537-91.301-46.017-49.646-23.311-99.966-45.185-149.747-68.213-40.719-18.836-79.894-40.429-114.904-68.87-37.037-30.089-67.532-66.131-95.095-104.807-33.092-46.437-61.09-96.007-89.299-145.448-22.432-39.314-43.565-79.57-71.249-115.484-21.423-27.792-45.367-53.643-68.243-80.312-3.778-4.404-7.823-8.58-12.655-13.854 0.392 2.208 0.473 3.2 0.748 4.135 9.9 33.662 26.772 63.403 51.247 88.515 12.336 12.657 16.44 26.418 10.296 43.174-4.169 11.368-7.496 23.063-12.03 34.276-6.922 17.121-9.388 35.235-13.306 53.064-5.509 25.07-2.49 49.958-0.239 74.996 1.853 20.603 3.813 41.206 11.522 60.521 5.894 14.766 13.13 29.017 20.216 43.274 3.264 6.568 8.977 11.012 15.677 14.146 5.744 2.686 7.726 2.007 8.932-4.392 1.353-7.178 2.117-14.468 3.119-21.711 2.417-17.457 3.731-35.155 7.516-52.309 4.504-20.42 12.711-39.523 27.251-55.345 5.472-5.954 10.173-12.615 15.649-19.485 0.893 1.591 1.926 2.864 2.377 4.318 15.757 50.712 40.755 97.126 67.486 142.568 20.664 35.128 41.671 70.253 70.034 100.016 8.816 9.251 18.918 17.281 28.5 25.793 0.948 0.842 2.379 1.141 3.586 1.691l-1.796 2.432c-3-1.354-6.46-2.149-8.92-4.164-9.658-7.907-19.172-16.011-28.427-24.388-20.871-18.893-41.563-37.984-62.313-57.01-16.719-15.327-30.455-33.165-41.969-52.535-6.675-11.229-11.381-23.623-17.05-35.455-2.371-4.948-4.822-9.866-7.492-14.655-0.798-1.433-2.463-2.381-3.731-3.551-0.885 1.67-2.298 3.262-2.56 5.024-0.949 6.411-1.338 12.903-2.255 19.32-2.282 15.963-4.381 31.966-7.261 47.824-1.712 9.432-6.438 17.741-12.622 25.175-8.448 10.155-19.455 11.477-31.687 10.171-16.45-1.756-27.892-10.74-38.07-23.097-26.856-32.604-39.596-70.881-45.218-111.794-4.824-35.104-5.21-70.477 0.216-105.581 2.12-13.716 6.577-27.083 10.173-40.555 3.04-11.386 6.185-22.751 9.675-34.004 1.362-4.392 3.537-8.599 5.816-12.62 2.243-3.958 2.299-7.48-1.384-10.162-12.934-9.42-20.25-23.089-28.511-36.213-22.213-35.292-34.472-74.712-47.962-113.635-2.716-7.836-4.948-15.849-7.166-23.847-2.731-9.845-6.858-18.922-12.263-27.667-15.362-24.854-33.113-47.898-51.248-70.736-10.484-13.203-18.955-27.757-22.755-44.533C8.135 75.783 7.56 73.394 7 71V56c0.703-3.03 1.271-6.101 2.13-9.086 5.569-19.339 16.632-33.45 37.095-38.35C49.74 7.724 53.405 7.506 57 7h19z m127.171 175.348c2.439 3.63 4.645 6.726 6.66 9.941 10.667 17.029 21.259 34.106 31.974 51.105 0.865 1.372 2.603 3.377 3.703 3.239 14.851-1.867 27.577-17.27 23.888-30.523-3.962-14.233-12.92-25.226-22.909-35.619-9.229-9.604-19.914-10.541-31.464-5.464-4.16 1.829-7.822 4.789-11.852 7.321z"></path>
</svg>
