<svg viewBox="0 0 1024 1024" version="1.1" xmlns="http://www.w3.org/2000/svg"
     width="1024" height="1024" xmlns:xlink="http://www.w3.org/1999/xlink">
    <path d="M1024.000614 490.500096S833.159782 869.777408 802.53399 929.40288c-13.408256 26.103808-28.030976 39.460864-61.104128 38.9632-154.236928-2.318336-308.5312-1.298432-462.800896-0.657408-18.817024 0.077824-29.229056-4.763648-39.104512-22.534144C164.323942 809.857024 88.121958 675.078144 10.525286 541.120512c-13.420544-23.166976-14.082048-41.033728-1.552384-63.96928C82.719334 342.163456 155.163238 206.460928 229.048934 71.54688c4.286464-7.825408 17.350656-15.37024 26.363904-15.413248 171.094016-0.796672 342.194176-0.630784 513.29024 0.219136 8.73472 0.043008 21.31968 5.677056 25.556992 12.67712 63.158272 104.33536 190.879744 319.83616 190.879744 319.83616l-189.073408 0.360448-95.617024-147.951616-345.413632 1.1264s-89.088 155.285504-133.588992 232.962048c-14.432256 25.192448-12.765184 49.672192 0.69632 74.166272 44.93312 81.760256 148.529152 262.95296 148.529152 262.95296l294.531072 0.28672 85.147648-154.116096s-211.48672-0.446464-295.632896 0.016384c-44.562432 0.24576-79.673344-31.787008-82.415616-76.716032-3.035136-49.72544 27.598848-91.721728 73.177088-92.0064l578.521088 0.55296z"></path>
</svg>
