<svg viewBox="0 0 1024 1024" version="1.1" xmlns="http://www.w3.org/2000/svg"
     width="1024" height="1024" xmlns:xlink="http://www.w3.org/1999/xlink">
    <path d="M949.650286 260.278857a11.483429 11.483429 0 0 0-5.266286-8.996571L515.401143 1.206857a11.190857 11.190857 0 0 0-10.057143 0L77.970286 254.134857A11.483429 11.483429 0 0 0 73.142857 263.131429v500.589714c0.219429 3.657143 2.194286 7.021714 5.229714 8.996571l430.189715 250.075429a11.190857 11.190857 0 0 0 10.093714 0l427.373714-251.721143a11.483429 11.483429 0 0 0 4.827429-8.996571l-1.206857-501.796572z m-125.915429 408.649143c0.402286 3.803429 0.402286 7.643429 0 11.446857l-7.68 13.458286a53.028571 53.028571 0 0 1-8.850286 7.350857l-267.154285 163.474286-12.507429 5.302857a24.32 24.32 0 0 1-8.886857 0 21.101714 21.101714 0 0 1-6.436571 0l-10.898286-4.498286-115.017143-56.393143a6.180571 6.180571 0 0 1-2.816-7.753143l18.541714-40.850285a6.034286 6.034286 0 0 1 7.68-2.889143l101.668572 49.883428c3.218286 1.462857 6.912 1.462857 10.093714 0l242.139429-148.333714a11.812571 11.812571 0 0 0 6.070857-6.948571v-280.356572a11.483429 11.483429 0 0 0-4.864-8.96L525.165714 219.428571a10.788571 10.788571 0 0 0-10.093714 0l-245.76 143.835429a11.483429 11.483429 0 0 0-5.266286 8.996571V658.285714c0.256 3.730286 1.828571 7.204571 4.461715 9.801143 20.48 20.114286 45.348571 35.108571 72.630857 43.739429a73.106286 73.106286 0 0 0 40.338285-20.041143 16.054857 16.054857 0 0 0 4.022858-10.203429V369.005714a6.107429 6.107429 0 0 1 5.668571-5.705143h42.788571c3.035429 0.182857 5.449143 2.633143 5.632 5.705143v320.804572c0.256 3.913143 0.256 7.899429 0 11.849143a26.331429 26.331429 0 0 1-3.620571 9.801142 127.195429 127.195429 0 0 1-92.818286 53.942858 161.097143 161.097143 0 0 1-127.524571-76.032 28.781714 28.781714 0 0 1-4.827429-11.410286 84.845714 84.845714 0 0 1 0-11.885714v-310.125715a52.955429 52.955429 0 0 1 0-11.446857l8.045715-13.897143c2.816-2.816 5.924571-5.266286 9.289142-7.350857l272.420572-158.573714a50.468571 50.468571 0 0 1 10.861714-4.498286h16.164572c3.657143 1.097143 7.168 2.633143 10.496 4.498286l267.154285 159.817143c3.328 2.048 6.436571 4.534857 9.252572 7.314285l7.68 12.690286a53.76 53.76 0 0 1 0 11.446857v311.771429l1.609143 1.243428z m-171.52-95.634286a218.075429 218.075429 0 0 0-51.638857-17.554285 468.224 468.224 0 0 1-77.494857-24.502858 74.825143 74.825143 0 0 1-43.958857-69.485714c-0.731429-13.568 2.048-27.099429 8.045714-39.241143 5.997714-11.410286 14.592-21.211429 25.051429-28.598857 9.801143-6.875429 20.736-11.995429 32.256-15.140571 14.299429-4.169143 29.110857-6.217143 43.995428-6.107429a171.154286 171.154286 0 0 1 61.732572 10.24c15.213714 5.046857 28.635429 14.409143 38.765714 26.953143 7.131429 12.8 12.544 26.587429 16.128 40.850286 0.365714 1.462857 0.073143 3.035429-0.768 4.278857a5.229714 5.229714 0 0 1-3.657143 2.267428l-37.961143 5.302858a7.277714 7.277714 0 0 1-7.68-4.900572 79.506286 79.506286 0 0 0-17.737143-31.085714 71.168 71.168 0 0 0-45.604571-13.056 81.92 81.92 0 0 0-50.029714 11.849143 34.011429 34.011429 0 0 0-14.921143 27.392 28.416 28.416 0 0 0 6.034285 17.956571c5.12 6.326857 11.812571 11.117714 19.382858 13.897143 5.12 1.938286 20.041143 6.290286 44.8 13.092571 25.490286 6.290286 50.541714 14.226286 75.044571 23.698286 13.494857 5.558857 25.124571 14.921143 33.499429 26.953143 8.484571 13.092571 12.690286 28.525714 12.105142 44.141714-0.109714 17.225143-5.302857 34.011429-14.921142 48.237715-10.569143 15.725714-25.417143 27.904-42.788572 35.108571a153.673143 153.673143 0 0 1-62.939428 12.288 139.117714 139.117714 0 0 1-88.795429-24.502857 189.037714 189.037714 0 0 1-37.12-67.035429 4.973714 4.973714 0 0 1 0.438857-4.278857 4.827429 4.827429 0 0 1 3.584-2.267428l40.374857-6.107429c3.291429-0.365714 6.290286 1.718857 7.241143 4.900571 4.278857 15.030857 11.702857 28.964571 21.796572 40.850286 15.506286 11.849143 34.706286 17.664 54.089142 16.347429 17.700571 1.206857 35.254857-3.547429 50.029715-13.494857 10.569143-8.009143 16.822857-20.553143 16.969143-33.901715a31.158857 31.158857 0 0 0-13.348572-25.344z"></path>
</svg>
