<?xml version="1.0" standalone="no"?><!DOCTYPE svg PUBLIC "-//W3C//DTD SVG 1.1//EN" "http://www.w3.org/Graphics/SVG/1.1/DTD/svg11.dtd"><svg t="1703214583659" class="icon" viewBox="0 0 1024 1024" version="1.1" xmlns="http://www.w3.org/2000/svg"  width="1024" height="1024" xmlns:xlink="http://www.w3.org/1999/xlink"><path d="M229.376 505.070933c0 78.370133 30.5152 152.064 85.947733 207.4624a291.566933 291.566933 0 0 0 207.530667 85.947734 291.566933 291.566933 0 0 0 207.496533-85.947734c109.1584-109.124267 114.176-283.579733 15.018667-398.711466a19.899733 19.899733 0 0 0-29.866667 0.2048 22.528 22.528 0 0 0 0.170667 29.627733c84.138667 98.6112 79.598933 247.3984-13.653333 340.5824a249.617067 249.617067 0 0 1-177.698134 73.6256 249.685333 249.685333 0 0 1-177.732266-73.6256 249.514667 249.514667 0 0 1-73.6256-177.664 249.412267 249.412267 0 0 1 58.743466-161.450667 23.552 23.552 0 0 0-0.750933-31.880533c-8.635733-8.635733-22.6304-8.772267-30.6176 0.477867a291.259733 291.259733 0 0 0-70.997333 191.351466z"  ></path><path d="M180.736 318.293333a23.893333 23.893333 0 0 0 8.738133 32.6656l619.281067 357.512534a23.893333 23.893333 0 1 0 23.893333-41.3696L213.333333 309.5552a23.893333 23.893333 0 0 0-32.631466 8.738133z"  ></path><path d="M164.181333 308.736q-8.9088 15.428267-4.3008 32.6656 4.608 17.2032 20.036267 26.112L799.197867 724.992q15.428267 8.9088 32.631466 4.3008t26.112-20.036267q8.874667-15.428267 4.3008-32.631466-4.608-17.2032-20.036266-26.112L222.890667 293.000533q-15.428267-8.874667-32.631467-4.3008-17.2032 4.608-26.112 20.036267z m25.258667 42.222933a23.893333 23.893333 0 1 1 23.893333-41.403733l619.3152 357.546667a23.893333 23.893333 0 1 1-23.893333 41.3696L189.44 350.958933z"  ></path><path d="M512 238.933333a22.186667 22.186667 0 0 0-22.186667 22.186667v160.426667a22.186667 22.186667 0 0 0 44.373334 0v-160.426667A22.186667 22.186667 0 0 0 512 238.933333z"  ></path></svg>
