<?xml version="1.0" standalone="no"?><!DOCTYPE svg PUBLIC "-//W3C//DTD SVG 1.1//EN" "http://www.w3.org/Graphics/SVG/1.1/DTD/svg11.dtd"><svg t="1710900023319" class="icon" viewBox="0 0 1024 1024" version="1.1" xmlns="http://www.w3.org/2000/svg" p-id="7586" width="512" height="512" xmlns:xlink="http://www.w3.org/1999/xlink"><path d="M780.004 453.29V305.665h89.543a11.378 11.378 0 0 0 8.533-18.83L754.233 144.27a11.378 11.378 0 0 0-17.18 0L613.147 286.834a11.378 11.378 0 0 0 8.59 18.83h89.942l0.057 147.627h68.267zM436.28 258.277a39.822 39.822 0 0 0 0-79.645H210.603a39.822 39.822 0 1 0 0 79.645h225.735z m115.996 274.66a39.822 39.822 0 1 0 0-79.645H210.603a39.822 39.822 0 1 0 0 79.644h341.674z m200.818 312.092a11.378 11.378 0 0 0 1.138-1.195l124.131-144.441a11.378 11.378 0 0 0-8.647-18.773h-89.713V532.935h-68.267V680.62h-90.169a11.378 11.378 0 0 0-8.647 18.773l124.075 144.44a11.378 11.378 0 0 0 16.042 1.196z m-312.377-37.376a39.822 39.822 0 0 0 0-79.645H210.603a39.822 39.822 0 0 0 0 79.645h230.115z" p-id="7587" fill="#333333"></path></svg>