<svg t="1724489977062" class="icon" viewBox="0 0 1024 1024" version="1.1" xmlns="http://www.w3.org/2000/svg" p-id="9220" width="256" height="256"><path d="M924.129259 0.299912h-823.758664c-54.983891 0-99.970712 44.98682-99.970712 99.970712v823.758664c0 54.983891 44.98682 99.970712 99.970712 99.970712h823.758664c54.983891 0 99.970712-44.98682 99.970712-99.970712v-823.758664c0-54.983891-44.98682-99.970712-99.970712-99.970712z m54.983891 923.729376c0 14.595724-5.798301 28.391682-16.195255 38.788636s-24.192912 16.195255-38.788636 16.195256h-823.758664c-14.595724 0-28.391682-5.798301-38.788637-16.195256-10.396954-10.396954-16.195255-24.192912-16.195255-38.788636v-608.821634h933.726447v608.821634z m-933.726447-653.808454v-169.95021c0-14.595724 5.798301-28.391682 16.195255-38.788636C71.978912 50.985063 85.774871 45.286732 100.370595 45.286732h823.758664c14.595724 0 28.391682 5.798301 38.788636 16.195256 10.396954 10.396954 16.195255 24.192912 16.195255 38.788636v169.95021h-933.726447z" fill="#303133" p-id="9221"></path><path d="M157.853754 135.260373c-12.396368 0-22.49341 10.097042-22.49341 22.49341s10.097042 22.49341 22.49341 22.49341 22.49341-10.097042 22.49341-22.49341-10.097042-22.49341-22.49341-22.49341zM292.814215 135.260373c-12.396368 0-22.49341 10.097042-22.493411 22.49341s10.097042 22.49341 22.493411 22.49341 22.49341-10.097042 22.49341-22.49341-10.097042-22.49341-22.49341-22.49341zM427.774675 135.260373c-12.396368 0-22.49341 10.097042-22.49341 22.49341s10.097042 22.49341 22.49341 22.49341 22.49341-10.097042 22.493411-22.49341-10.097042-22.49341-22.493411-22.49341z" fill="#303133" p-id="9222"></path><path d="M192.343649 536.64278h81.37616c54.883921 0 97.071561 16.995021 97.071561 69.179733 0 50.385239-42.487552 73.07859-95.771942 73.07859H241.929122v78.477009h-49.585473V536.64278z m79.376745 107.368545c34.189983 0 50.58518-12.796251 50.585181-38.188812 0-25.692473-18.094699-34.289954-52.184712-34.289954H241.929122v72.478766h29.791272zM415.578249 536.64278h49.585473v86.774578H558.836278v-86.774578h49.185591v220.735332H558.836278v-95.47203h-93.772527v95.47203h-49.585473V536.64278zM669.004003 536.64278h81.376159c54.883921 0 97.071561 16.995021 97.071561 69.179733 0 50.385239-42.487552 73.07859-95.771942 73.07859h-33.090305v78.477009h-49.585473V536.64278z m79.376745 107.368545c34.189983 0 50.58518-12.796251 50.58518-38.188812 0-25.692473-18.094699-34.289954-52.184712-34.289954h-28.09177v72.478766h29.691302z" fill="#303133" p-id="9223"></path></svg>
