<?xml version="1.0" standalone="no"?><!DOCTYPE svg PUBLIC "-//W3C//DTD SVG 1.1//EN"
  "http://www.w3.org/Graphics/SVG/1.1/DTD/svg11.dtd">
<svg t="1655822900599" class="icon" viewBox="0 0 1024 1024" version="1.1" xmlns="http://www.w3.org/2000/svg"
     xmlns:xlink="http://www.w3.org/1999/xlink" width="512" height="512">

  <path d="M704 490.666667H320c-12.8 0-21.333333 8.533333-21.333333 21.333333v170.666667c0 12.8 8.533333 21.333333 21.333333 21.333333h32v-74.666667c0-17.066667 14.933333-32 32-32s32 14.933333 32 32V704h64v-74.666667c0-17.066667 14.933333-32 32-32s32 14.933333 32 32V704h64v-74.666667c0-17.066667 14.933333-32 32-32s32 14.933333 32 32V704H704c12.8 0 21.333333-8.533333 21.333333-21.333333v-170.666667c0-12.8-8.533333-21.333333-21.333333-21.333333z"  ></path><path d="M832 256h-102.4l-57.6-121.6c-6.4-17.066667-21.333333-27.733333-40.533333-27.733333H392.533333c-17.066667 0-34.133333 10.666667-40.533333 27.733333L294.4 256H192c-46.933333 0-85.333333 38.4-85.333333 85.333333v490.666667c0 46.933333 38.4 85.333333 85.333333 85.333333h640c46.933333 0 85.333333-38.4 85.333333-85.333333V341.333333c0-46.933333-38.4-85.333333-85.333333-85.333333z m-42.666667 469.333333c0 23.466667-19.2 42.666667-42.666666 42.666667H277.333333c-23.466667 0-42.666667-19.2-42.666666-42.666667V469.333333c0-23.466667 19.2-42.666667 42.666666-42.666666h469.333334c23.466667 0 42.666667 19.2 42.666666 42.666666v256z"  ></path>

</svg>
