<?xml version="1.0" standalone="no"?><!DOCTYPE svg PUBLIC "-//W3C//DTD SVG 1.1//EN" "http://www.w3.org/Graphics/SVG/1.1/DTD/svg11.dtd"><svg t="1628576654065" class="icon" viewBox="0 0 1024 1024" version="1.1" xmlns="http://www.w3.org/2000/svg" p-id="1259" width="500" height="500" xmlns:xlink="http://www.w3.org/1999/xlink"><defs><style type="text/css"></style></defs><path d="M455.408941 794.925176h84.87153v-84.871529h-84.87153v84.871529z m130.168471-265.938823c-42.465882 28.310588-62.253176 62.223059-62.253177 99.026823v25.449412H455.378824v-31.111529c-2.831059-50.928941 22.648471-96.195765 67.915294-130.168471 50.898824-36.743529 76.378353-73.547294 70.716235-107.52-5.662118-50.898824-33.942588-79.209412-87.702588-82.04047-62.253176-2.831059-101.857882 33.972706-115.983059 110.351058l-76.408471-19.817411c22.648471-113.152 93.364706-166.912 206.546824-164.080941 99.026824 5.662118 149.955765 53.76 161.249882 147.124705 2.861176 56.591059-28.280471 107.52-96.165647 152.786824zM512 59.301647C263.017412 59.331765 59.331765 263.017412 59.331765 512c0 249.012706 203.685647 452.728471 452.668235 452.728471S964.668235 760.982588 964.668235 512 761.012706 59.331765 512 59.331765z m0 961.957647C231.905882 1021.289412 2.710588 792.094118 2.710588 512 2.710588 231.905882 231.905882 2.710588 512 2.710588S1021.289412 231.905882 1021.289412 512 792.094118 1021.289412 512 1021.289412z" fill="#333333" p-id="1260"></path></svg>