<?xml version="1.0" standalone="no"?><!DOCTYPE svg PUBLIC "-//W3C//DTD SVG 1.1//EN"
  "http://www.w3.org/Graphics/SVG/1.1/DTD/svg11.dtd">
<svg class="icon" viewBox="0 0 1024 1024" version="1.1" xmlns="http://www.w3.org/2000/svg"
     xmlns:xlink="http://www.w3.org/1999/xlink" width="256" height="256">
  <path
    d="M808.997 694.857l-94.538-94.574 51.712-51.712L947.2 729.6 766.171 910.629 714.46 858.88 805.303 768H365.714v-73.143h443.283z m32.146 32.146v5.194l2.596-2.597-2.596-2.597zM292.57 146.286H146.286v731.428H512v73.143H146.286a73.143 73.143 0 0 1-73.143-73.143V146.286a73.143 73.143 0 0 1 73.143-73.143H768L950.857 256v256h-73.143V292.571L731.43 146.286v292.571A73.143 73.143 0 0 1 658.286 512H365.714a73.143 73.143 0 0 1-73.143-73.143V146.286z m73.143 292.571h292.572V146.286H365.714v292.571zM512 219.43h73.143v146.285H512V219.43z"
    ></path>
</svg>
