<?xml version="1.0" standalone="no"?><!DOCTYPE svg PUBLIC "-//W3C//DTD SVG 1.1//EN" "http://www.w3.org/Graphics/SVG/1.1/DTD/svg11.dtd"><svg t="1703748313082" class="icon" viewBox="0 0 1024 1024" version="1.1" xmlns="http://www.w3.org/2000/svg"  width="1024" height="1024" xmlns:xlink="http://www.w3.org/1999/xlink"><path d="M194.773333 835.136A109.568 109.568 0 0 1 85.333333 725.696V197.674667a112.490667 112.490667 0 0 1 112.341334-112.32H302.933333a110.592 110.592 0 0 1 108.693334 90.346666l17.386666 93.248a43.242667 43.242667 0 0 0 42.432 35.242667h321.322667a112.490667 112.490667 0 0 1 112.341333 112.341333v60.330667a33.578667 33.578667 0 0 1-33.578666 33.578667 33.6 33.6 0 0 1-33.578667-33.578667v-60.330667a45.226667 45.226667 0 0 0-45.184-45.248H471.466667a110.336 110.336 0 0 1-108.437334-90.026666l-17.408-93.269334a43.413333 43.413333 0 0 0-42.666666-35.477333H197.696a45.205333 45.205333 0 0 0-45.184 45.162667v528.021333a42.304 42.304 0 0 0 42.282667 42.261333h343.466666a33.642667 33.642667 0 0 1 33.664 33.578667 33.578667 33.578667 0 0 1-33.578666 33.6z m357.333334-637.866667a33.536 33.536 0 0 1-33.578667-33.578666 33.578667 33.578667 0 0 1 33.578667-33.578667h281.92a33.578667 33.578667 0 0 1 33.578666 33.578667 33.578667 33.578667 0 0 1-33.578666 33.578666z"  ></path><path d="M789.333333 896a170.666667 170.666667 0 1 1 170.666667-170.666667 170.666667 170.666667 0 0 1-170.666667 170.666667z m0-34.133333a136.533333 136.533333 0 1 0-136.533333-136.533334 136.533333 136.533333 0 0 0 136.533333 136.533334z m-29.013333-80.277334l-48.341333-48.426666a17.066667 17.066667 0 1 1 24.128-24.128l36.266666 36.266666 75.989334-75.157333a17.066667 17.066667 0 0 1 24.213333 0 17.066667 17.066667 0 0 1 0 24.085333l-88.128 87.466667a17.066667 17.066667 0 0 1-24.085333 0z"  ></path></svg>
