<?xml version="1.0" standalone="no"?><!DOCTYPE svg PUBLIC "-//W3C//DTD SVG 1.1//EN" "http://www.w3.org/Graphics/SVG/1.1/DTD/svg11.dtd"><svg t="1727447144662" class="icon" viewBox="0 0 1024 1024" version="1.1" xmlns="http://www.w3.org/2000/svg" p-id="8131" width="512" height="512" xmlns:xlink="http://www.w3.org/1999/xlink"><path d="M512 851.7c-155.4 0-287-125.4-351.6-200.2-35.1-40.6-35.1-101.9 0-142.5 12.3-14.2 25.2-28.2 38.5-41.6l3.8-3.8-61.5-75.7c-11.3-13.9-9.1-34.3 4.7-45.6 5.8-4.7 12.9-7.2 20.4-7.2 9.8 0 19 4.4 25.2 12l59.1 72.7 4.7-3.8c24-19.7 48.5-37 72.8-51.4l5-3-49-86.8c-8.8-15.6-3.2-35.4 12.3-44.1 4.9-2.7 10.4-4.2 15.9-4.2 11.7 0 22.5 6.3 28.3 16.5l50.9 90.2 4.8-1.8c26.2-10 52.5-16.7 78.1-20l5.2-0.7v-106c0-17.9 14.5-32.4 32.4-32.4s32.4 14.5 32.4 32.4v105.8l5.2 0.7c25.7 3.3 52 10 78.1 20l4.8 1.8 50.9-90.2c5.7-10.2 16.6-16.5 28.3-16.5 5.5 0 11 1.4 15.9 4.2 15.6 8.8 21.1 28.6 12.3 44.1l-49 86.8 5 3c24.3 14.4 48.8 31.7 72.8 51.4l4.7 3.8 59-72.7c6.2-7.6 15.3-12 25.2-12 7.4 0 14.7 2.6 20.4 7.2 13.9 11.3 16 31.7 4.7 45.6l-61.5 75.7 3.8 3.8c13.2 13.4 26.2 27.4 38.5 41.6l0.8 0.9c34.3 40.6 34 101.3-0.8 141.6-64.5 75-196 200.4-351.5 200.4z m0-478.1c-37.8 0-77.3 9.6-117.5 28.5l-0.2 0.1-0.9 0.5c-1.3 0.7-2.8 1.4-4.3 2l-0.3 0.1-0.2 0.1c-39.2 19.3-79 47.4-118.3 83.6l-0.1 0.1-0.1 0.1c-1 1-1.9 1.9-2.9 2.7l-0.2 0.1-0.1 0.1c-19.7 18.3-39 38.4-57.4 59.7-14.2 16.5-14.2 41.3 0 57.8 57.4 66.4 172.9 177.8 302.5 177.8s245.2-111.4 302.5-177.8c14.2-16.5 14.2-41.3 0-57.8-18.3-21.2-37.5-41.2-57.2-59.5l-0.2-0.2-0.3-0.2c-1-0.9-2-1.8-3-2.8l-0.1-0.1-0.2-0.1c-39.3-36-79-64.1-118.1-83.3l-0.3-0.1-0.3-0.1c-1.5-0.6-3.1-1.3-4.5-2.1l-0.9-0.5-0.3-0.1c-39.8-19.1-79.3-28.6-117.1-28.6z" fill="#A8A8A8" p-id="8132"></path><path d="M512 715.4c-71.9 0-130.4-58.5-130.4-130.4S440.1 454.6 512 454.6 642.4 513.1 642.4 585 583.9 715.4 512 715.4z m0-194.6c-35.4 0-64.2 28.8-64.2 64.2 0 35.4 28.8 64.2 64.2 64.2 35.4 0 64.2-28.8 64.2-64.2 0-35.4-28.8-64.2-64.2-64.2z" fill="#A8A8A8" p-id="8133"></path></svg>