<?xml version="1.0" standalone="no"?><!DOCTYPE svg PUBLIC "-//W3C//DTD SVG 1.1//EN" "http://www.w3.org/Graphics/SVG/1.1/DTD/svg11.dtd"><svg t="1698126986957" class="icon" viewBox="0 0 1082 1024" version="1.1" xmlns="http://www.w3.org/2000/svg" p-id="10487" width="1082" height="1024" xmlns:xlink="http://www.w3.org/1999/xlink"><path d="M848.027846 127.064914h-38.769366a30.584366 30.584366 0 1 0 0 61.158061h37.638192a15.04674 15.04674 0 0 1 15.057412 15.057411v504.375251a15.04674 15.04674 0 0 1-15.057412 15.057412H75.276384a15.068083 15.068083 0 0 1-15.057411-15.057412V202.341299a15.068083 15.068083 0 0 1 15.057411-14.118324h325.585836a30.114822 30.114822 0 1 0 0-60.218973H75.276384A75.276384 75.276384 0 0 0 0 203.280386v504.375251a75.276384 75.276384 0 0 0 75.276384 75.297728h772.751462a75.276384 75.276384 0 0 0 75.276384-75.276385V202.341299a75.276384 75.276384 0 0 0-75.276384-75.276385z m-323.889076 21.641694l47.231823-47.43458v209.469825a30.114822 30.114822 0 1 0 60.229645 0V103.534375l47.231822 47.050408a30.146837 30.146837 0 0 0 42.536386-42.685787L621.056848 8.537157a30.861824 30.861824 0 0 0-42.536386 0L481.602384 106.020822a30.146837 30.146837 0 0 0 42.536386 42.685786zM130.234334 377.737195v259.017351a30.114822 30.114822 0 1 0 60.218973 0V377.737195a30.114822 30.114822 0 0 0-60.218973 0z m191.776567 86.438717v172.578634a30.114822 30.114822 0 1 0 60.218973 0V464.122555a30.114822 30.114822 0 0 0-60.218973 0z m383.734547-86.438717v259.017351a30.114822 30.114822 0 1 0 60.037559 0V377.737195a30.114822 30.114822 0 1 0-60.037559 0z m-1.878174 516.6154H491.761602V828.104255a30.114822 30.114822 0 1 0-60.218974 0v65.832154H219.436956a30.114822 30.114822 0 0 0 0 60.218973h484.483675a30.114822 30.114822 0 1 0 0-60.218973zM543.891618 549.003241a30.104151 30.104151 0 0 0-30.104151 30.125494v57.625811a30.130829 30.130829 0 1 0 60.261659 0v-57.625811a30.114822 30.114822 0 0 0-30.114822-30.114823z m0 0" p-id="10488" fill="#333333"></path></svg>