<svg class="icon" viewBox="0 0 1024 1024" version="1.1" xmlns="http://www.w3.org/2000/svg"
     width="1024" height="1024" xmlns:xlink="http://www.w3.org/1999/xlink">
    <path d="M725.316732 128H298.683268v85.366537l213.266927 213.266926 213.366537-213.266926zM682.982101 195.635798L511.950195 366.368872 341.316732 195.635798v-25.002335H682.982101zM298.683268 896.498054h426.633464v-85.864591L511.950195 597.66537 298.683268 810.633463z m42.633464-67.635797L511.950195 657.431907 682.982101 828.364202v25.002335H341.316732zM639.950195 0h85.366537v42.633463h-85.366537z"></path><path d="M853.316732 42.633463h85.366536V0H810.683268v281.002335L579.685603 512l230.997665 230.997665v238.368872H213.316732V742.997665L444.314397 512 213.316732 281.002335V42.633463h341.366536V0H85.316732v42.633463h85.366536v256L383.950195 512 170.683268 725.366537v256H85.316732v42.633463h853.366536v-42.633463H853.316732v-256L639.950195 512 853.316732 298.633463V42.633463z"></path>
</svg>
