<?xml version="1.0" standalone="no"?><!DOCTYPE svg PUBLIC "-//W3C//DTD SVG 1.1//EN" "http://www.w3.org/Graphics/SVG/1.1/DTD/svg11.dtd"><svg t="1725587981237" class="icon" viewBox="0 0 1424 1024" version="1.1" xmlns="http://www.w3.org/2000/svg" p-id="6585" xmlns:xlink="http://www.w3.org/1999/xlink" width="356" height="256"><path d="M721.104 190.434a737.882 737.882 0 0 0 22.074 157.545s112.462 273.168 327.418 344.286c62.395-44.505 116.601-102.227 158.39-170.941l10.593-17.936a525.227 525.227 0 0 0 13.262-25.1l8.545-17.935c37.384-81.888 57.99-176.06 55.942-278.864h0.312c0-28.038-8.857-147.31-24.745-179.887-42.991 16.734-121.63 70.54-139.298 125.502a854.216 854.216 0 0 0-264.668 3.294C874.777 71.207 804.371 25.813 751.411 0.4c-22.386 38.273-32.4 127.282-29.729 190.389-0.311-0.623-0.578-0.311-0.578-0.311z m681.895 772.595c-27.059-30.797-80.108-45.127-124.256-44.237-20.294-24.478-113.664-126.125-170.185-186.473l-29.15 19.715-25.323-8.367C818.524 665.963 698.985 380.824 694 368.897l-1.468-3.561-0.579-2.403C523.237 416.96 349.181 527.287 247.89 634.587l-17.09 18.247a1689.384 1689.384 0 0 0-23.587 26.257C87.496 814.474 0 960.36 0 984.258v12.55h157.812l-2.67-14.954c-8.812-47.797 8.9-107.611 45.394-152.115 22.965-28.083 60.615-60.081 120.118-74.723 48.865-17.935 177.572-3.56 177.572-3.56C752.568 774.464 995.784 878.47 1270.509 1024h151.048l2.047-10.147c2.67-13.796-4.984-33.2-20.605-50.824z m-789.373-93.548c-18.559-12.239-47.13-14.063-73.344-4.762a162.13 162.13 0 0 1-34.713-66.356l-7.388-0.89s-78.906-8.99-136.895-4.183A1729.928 1729.928 0 0 0 515.85 916.389h117.18v-12.55c0-13.753-7.032-25.991-19.404-34.358zM201.694 610.065l10.903-11.66c2.047-2.403 4.406-4.762 6.765-6.854-32.088-52.648-46.24-97.152-50.958-132.4-7.654-56.209 5.608-107.878 38.274-149.445 51.536-64.843 124.568-69.338 199.646-56.476-1.468 11.971 0 23.587 4.718 30.797 19.715 29.862 126.615 40.32 190.478 11.348-47.085-66.934-142.19-99.511-168.67-86.338-8.857 4.45-15.355 12.239-19.76 21.495-25.902-4.806-51.804-8.366-70.674-8.1-66.222 0.624-116.868 23.944-154.875 71.742-37.072 46.907-52.381 105.208-43.57 168.582 6.498 46.908 25.902 96.218 57.723 147.31z" p-id="6586"></path></svg>