<svg viewBox="0 0 1024 1024" version="1.1" xmlns="http://www.w3.org/2000/svg"
     width="1024" height="1024" xmlns:xlink="http://www.w3.org/1999/xlink">
    <path d="M355.67133509 509.04871543c8.49612319 176.4510622 171.17452236 293.07153083 184.14228901 293.07153011 12.96776662 0 175.55673336-116.62046864 184.09757277-293.07153011h212.58194311v276.61588132a100.61198427 100.61198427 0 0 1-100.5672673 100.56726732H232.52226656A100.61198427 100.61198427 0 0 1 131.91028227 785.61988053V509.09343165h223.76105282z m365.06499463-50.52957472a184.50002099 184.50002099 0 0 0-361.84541125 0H131.91028227V333.08953388A100.61198427 100.61198427 0 0 1 232.52226656 232.52226656h150.82854322V182.21627442C383.35080978 154.44736654 405.84317784 131.91028227 433.65680193 131.91028227h201.13453537c27.72419091 0 50.26127592 22.53708427 50.26127518 50.30599215v50.26127518h150.8732602a100.61198427 100.61198427 0 0 1 100.61198353 100.61198428v125.47432381h-215.80152649zM634.7913373 232.52226656v-25.13063833a25.17535455 25.17535455 0 0 0-25.13063833-25.13063759H458.78743952a25.13063759 25.13063759 0 0 0-25.13063759 25.13063759v25.13063833h201.13453537z m-100.61198428 346.06050875a89.43287457 89.43287457 0 1 1 0-178.86574991 89.43287457 89.43287457 0 0 1 0 178.86574991z"></path>
</svg>
