<svg viewBox="0 0 1539 1024" version="1.1" xmlns="http://www.w3.org/2000/svg"
     width="1539" height="1024" xmlns:xlink="http://www.w3.org/1999/xlink">
    <path d="M1201.664 320.341333A501.589333 501.589333 0 0 0 736.768 0.085333a506.197333 506.197333 0 0 0-500.736 481.877334 272.298667 272.298667 0 0 0 30.464 542.122666h386.901333V784.384H459.946667a47.274667 47.274667 0 0 1 0-67.498667l273.834666-296.106666a48.725333 48.725333 0 0 1 68.266667 0l273.92 296.106666a47.445333 47.445333 0 0 1 0 67.498667h-193.28v239.701333h308.650667a352.085333 352.085333 0 0 0 10.410666-703.744z"></path>
</svg>
