<svg class="icon" viewBox="0 0 1024 1024" version="1.1" xmlns="http://www.w3.org/2000/svg"
     width="500" height="500" xmlns:xlink="http://www.w3.org/1999/xlink">
    <path d="M207.872 947.2a21.248 21.248 0 0 1-21.504-21.248c0-13.568 10.752-15.36 20.224-15.36H819.2a27.648 27.648 0 0 1 19.712 5.632 13.312 13.312 0 0 1 3.84 9.728 21.504 21.504 0 0 1-23.552 21.248zM408.064 808.704H206.336c-17.152 0-21.76-16.128-26.88-34.56L76.8 423.68h-2.56a80.128 80.128 0 0 1 14.592-159.232 81.152 81.152 0 0 1 81.664 80.384 79.616 79.616 0 0 1-10.24 39.168v2.048l129.28 76.8 30.976 18.432 2.048 1.28v-2.048l99.072-177.408 44.8-80.384-1.792-1.28a80.64 80.64 0 0 1-33.792-64.768 81.664 81.664 0 0 1 163.328 0A79.104 79.104 0 0 1 563.2 220.672l-1.792 1.28 145.92 261.376 157.44-94.976v-2.048a76.8 76.8 0 0 1-9.216-36.864 81.92 81.92 0 0 1 139.776-56.32 79.104 79.104 0 0 1 23.296 56.32 80.896 80.896 0 0 1-65.024 78.592h-1.536l-99.84 336.384c0 3.84-2.048 7.936-3.072 11.776-3.584 15.616-7.68 32-29.696 32zM119.552 419.072v2.048l16.384 55.296 88.576 295.68h582.4l30.72-114.688 68.864-232.448h-2.304l-8.192-4.608-168.704 99.84a51.2 51.2 0 0 1-25.6 8.96 36.096 36.096 0 0 1-33.792-25.6l-148.48-266.24h-11.52L356.096 509.44a35.328 35.328 0 0 1-22.528 18.432 35.84 35.84 0 0 1-8.704 1.28 41.728 41.728 0 0 1-20.992-6.4c-12.8-7.424-25.6-15.104-37.888-22.784l-139.776-83.968z m815.872-107.264A37.632 37.632 0 1 0 972.8 349.44a38.144 38.144 0 0 0-37.376-37.632zM89.088 307.2a37.632 37.632 0 1 0 27.392 63.744 35.072 35.072 0 0 0 10.752-25.6A37.888 37.888 0 0 0 89.088 307.2zM512 119.552a37.632 37.632 0 1 0 38.4 37.632A38.144 38.144 0 0 0 512 119.552z"></path>
</svg>
